<svg width="200" height="40" viewBox="0 0 200 40" fill="none" xmlns="http://www.w3.org/2000/svg">
<g clip-path="url(#clip0_3360_77269)">
<path d="M83.8742 10.1605C82.1243 11.7446 81.4874 15.334 84.6419 17.4323L97.2267 26.0663L91.1247 12.0867C89.8461 8.78783 86.3481 8.06846 83.8742 10.1605Z" fill="black"/>
<path d="M94.7073 3.36365C92.6616 3.40533 89.5899 5.84135 90.9569 9.56119L97.268 24.4452L99.4856 8.79008C99.9988 4.90014 97.055 3.10445 94.7073 3.36365Z" fill="black"/>
<path d="M100.47 8.19301H101.664C101.664 8.19301 102.301 8.19301 102.388 8.49364C101.918 8.87714 100.64 8.92519 100.81 10.9736L102.816 24.4431L109.084 9.52003C110.366 6.18798 107.675 3.40521 105.288 3.32016C105.176 3.31216 105.064 3.30566 104.948 3.30566C102.806 3.3056 100.351 4.86277 100.47 8.19301Z" fill="black"/>
<path d="M108.831 12.2135L102.903 26.0254L115.484 17.3458C118.384 15.2888 117.916 12.0001 116.293 10.3745C115.612 9.60938 114.363 9.01835 113.039 9.01835C111.475 9.01804 109.802 9.84752 108.831 12.2135Z" fill="black"/>
<path d="M114.075 19.311L102.26 27.5637H116.808C119.793 27.5637 121.711 24.4864 120.858 21.6624C120.287 19.8873 118.597 18.494 116.636 18.492C115.811 18.4923 114.935 18.7409 114.075 19.311Z" fill="black"/>
<path d="M83.5352 27.5638H97.8684L86.0503 19.311C83.32 17.5568 80.25 18.5832 79.1417 21.4943C78.2022 24.8267 80.5479 27.5638 83.5352 27.5638Z" fill="black"/>
<path d="M78.1523 33.5363C78.1523 34.9418 79.3013 37.5002 83.6886 37.5002C87.7335 37.5002 89.011 35.6441 89.011 34.7931H85.8795C85.8795 34.7931 85.7308 35.9174 83.9643 35.9174C82.1966 35.9174 81.7186 34.442 81.7186 33.5889C81.7186 32.7389 82.1966 31.3432 83.9643 31.3432C85.7308 31.3432 85.8795 32.3221 85.8795 32.3221H89.011C89.011 31.47 88.0737 29.6402 83.6886 29.6402C79.3013 29.6402 78.1523 32.3648 78.1523 33.5363Z" fill="black"/>
<path d="M110.994 33.5363C110.994 34.9418 112.144 37.5002 116.53 37.5002C120.575 37.5002 121.853 35.6441 121.853 34.7931H118.723C118.723 34.7931 118.574 35.9174 116.807 35.9174C115.039 35.9174 114.561 34.442 114.561 33.5889C114.561 32.7389 115.039 31.3432 116.807 31.3432C118.574 31.3432 118.723 32.3221 118.723 32.3221H121.853C121.853 31.47 120.916 29.6402 116.53 29.6402C112.144 29.6402 110.994 32.3648 110.994 33.5363Z" fill="black"/>
<path d="M97.5694 29.7714V34.5294L93.925 29.7714H89.8254V37.3076H92.6359V32.495L96.2166 37.3076H100.38V29.7714H97.5694Z" fill="black"/>
<path d="M106.576 35.5072V35.5172H104.234V34.1334H106.576V34.1379C107.076 34.1379 107.48 34.4452 107.48 34.8237C107.48 35.2011 107.076 35.5072 106.576 35.5072ZM104.255 31.2372H106.512V31.2404C106.894 31.2404 107.204 31.4919 107.204 31.8015C107.204 32.1122 106.894 32.3615 106.512 32.3615V32.3649H104.255V31.2372ZM108.876 33.3011C109.388 33.3011 110.457 32.7072 110.457 31.5565C110.457 29.918 107.406 29.7714 106.938 29.7714H101.316V37.3076H106.938C109.642 37.3076 110.728 36.4535 110.728 35.0271C110.728 33.6008 108.876 33.3011 108.876 33.3011Z" fill="black"/>
</g>
<defs>
<clipPath id="clip0_3360_77269">
<rect width="43.7927" height="35" fill="white" transform="translate(78.1055 2.5)"/>
</clipPath>
</defs>
</svg>
