<svg width="200" height="40" viewBox="0 0 200 40" fill="none" xmlns="http://www.w3.org/2000/svg">
<g clip-path="url(#clip0_3360_77318)">
<path fill-rule="evenodd" clip-rule="evenodd" d="M57.7734 5.41289L57.7757 8.20135H62.3865V35.1267H66.7419V8.20135H71.225V5.40674L57.7734 5.41289Z" fill="black"/>
<path fill-rule="evenodd" clip-rule="evenodd" d="M57.6914 5.33477L57.6937 8.28015H62.3045V35.2055H66.8168V8.28015H71.2999V5.32861L57.6914 5.33477ZM57.8491 5.49246L71.1422 5.48554V8.12323H66.6591V35.0486H62.4622V8.12323H57.8506L57.8491 5.49169V5.49246Z" fill="black"/>
<path fill-rule="evenodd" clip-rule="evenodd" d="M72.5921 14.3012V13.032H68.7344V35.0628H72.7836C72.7836 35.0628 72.8367 20.3966 72.7836 18.8089C72.7198 16.9043 75.589 16.7782 75.589 16.7782H76.9275V12.8412C74.7598 12.5236 72.5921 14.3012 72.5921 14.3012Z" fill="black"/>
<path fill-rule="evenodd" clip-rule="evenodd" d="M68.8139 34.9848H72.7063C72.7101 33.8263 72.7563 20.3202 72.7063 18.8125C72.6401 16.8525 75.557 16.7009 75.5863 16.6994H76.8501V12.9102C74.7647 12.6479 72.6639 14.3448 72.6424 14.3625L72.5139 14.4679V13.1102H68.8139V34.9848ZM72.8632 35.1417H68.6562V12.954H72.6716V14.1425C73.1739 13.7709 75.0647 12.4886 76.9409 12.764L77.0078 12.774V16.8563H75.5901C75.5863 16.8563 74.8778 16.8909 74.1886 17.154C73.2839 17.4986 72.8378 18.0556 72.8632 18.8079C72.9155 20.3779 72.8632 34.9171 72.8632 35.0632V35.1417ZM98.1024 13.0317L95.807 27.1271L93.3201 12.9686H89.1116L93.4478 35.1263H96.7001L100.781 13.0317H98.1024Z" fill="black"/>
<path fill-rule="evenodd" clip-rule="evenodd" d="M93.5157 35.0489H96.638L100.69 13.1104H98.1726L95.8134 27.5989L93.2572 13.0473H89.2111L93.5157 35.0489ZM96.7695 35.205H93.3865L93.3734 35.1419L89.0195 12.8904H93.3895L93.4011 12.955L95.8072 26.655L98.0388 12.9542H100.879L96.7688 35.205H96.7695ZM106.568 14.3658C106.568 14.3658 108.29 14.4289 108.353 17.6042C108.417 20.7781 108.353 22.4919 108.353 22.4919H104.783V17.5404C104.783 17.5404 104.719 14.3658 106.568 14.3658ZM108.481 26.0481V30.9365C108.481 30.9365 108.417 33.6027 106.696 33.5396C104.974 33.4765 104.783 30.9365 104.783 30.9365V24.2704H112.817C113.455 12.2704 106.632 12.715 106.632 12.715C100 13.5404 100.446 22.175 100.446 22.175C100.446 22.175 99.6172 35.5712 106.76 35.3173C113.901 35.0635 112.753 26.0481 112.753 26.0481H108.481Z" fill="black"/>
<path fill-rule="evenodd" clip-rule="evenodd" d="M104.856 22.4137H108.272C108.284 22.0491 108.326 20.3745 108.27 17.6045C108.209 14.5722 106.611 14.446 106.562 14.443C106.202 14.4437 105.892 14.5737 105.64 14.8291C104.829 15.6522 104.856 17.5191 104.856 17.5383V22.4137ZM108.425 22.5699H104.699V17.5391C104.698 17.4622 104.67 15.5907 105.528 14.7191C105.81 14.4322 106.159 14.2868 106.563 14.2868H106.566C106.639 14.2891 108.363 14.3899 108.428 17.6022C108.49 20.7422 108.428 22.4776 108.428 22.4945L108.425 22.5699ZM106.711 12.7907C106.662 12.7907 106.634 12.7922 106.632 12.7922C100.155 13.5991 100.516 22.0845 100.52 22.1707C100.516 22.263 100.043 30.5545 103.291 33.873C104.225 34.8276 105.389 35.286 106.752 35.2383C108.541 35.1753 109.959 34.546 110.964 33.3668C113.081 30.8876 112.738 26.7107 112.678 26.126H108.555V30.936C108.553 31.0014 108.509 32.5053 107.73 33.236C107.443 33.5037 107.092 33.6314 106.688 33.6176C105.951 33.5907 105.372 33.1153 105.016 32.2437C104.849 31.8269 104.743 31.3887 104.699 30.9422V24.1914H112.738C112.975 19.5299 112.122 16.2107 110.207 14.326C108.735 12.8791 107.087 12.7907 106.711 12.7907ZM106.557 35.3983C105.234 35.3983 104.099 34.923 103.178 33.983C99.8809 30.6137 100.358 22.2537 100.362 22.1699C100.359 22.0914 99.9893 13.4614 106.617 12.6368C106.642 12.6345 108.602 12.5283 110.317 14.2137C112.277 16.1414 113.143 19.526 112.891 24.2737L112.887 24.3483H104.856V30.936C104.858 30.9545 105.062 33.4007 106.693 33.4607C107.054 33.4768 107.367 33.3607 107.622 33.1214C108.353 32.4368 108.397 30.9491 108.397 30.9345V25.9691H112.818L112.826 26.0376C112.832 26.0837 113.397 30.7599 111.084 33.4683C110.049 34.6814 108.592 35.3299 106.757 35.3953C106.69 35.3976 106.624 35.3989 106.557 35.3991V35.3983ZM125.106 14.3653C125.106 14.3653 126.829 14.4283 126.892 17.6037C126.956 20.7776 126.892 22.4914 126.892 22.4914H123.321V17.5399C123.321 17.5399 123.257 14.3653 125.106 14.3653ZM127.019 26.0476V30.936C127.019 30.936 126.956 33.6022 125.235 33.5391C123.512 33.476 123.321 30.936 123.321 30.936V24.2699H131.356C131.994 12.2699 125.171 12.7145 125.171 12.7145C118.539 13.5399 118.985 22.1745 118.985 22.1745C118.985 22.1745 118.156 35.5707 125.298 35.3168C132.44 35.063 131.292 26.0476 131.292 26.0476H127.019Z" fill="black"/>
<path fill-rule="evenodd" clip-rule="evenodd" d="M123.401 22.4138H126.816C126.828 22.0492 126.87 20.3746 126.814 17.6046C126.753 14.5684 125.191 14.4476 125.106 14.443C124.745 14.4438 124.435 14.5738 124.185 14.8292C123.373 15.6523 123.4 17.5192 123.4 17.5384V22.4138H123.401ZM126.969 22.57H123.243V17.5392C123.242 17.4623 123.214 15.5907 124.072 14.7192C124.355 14.4323 124.702 14.2869 125.108 14.2869H125.11C125.184 14.2892 126.907 14.3899 126.972 17.6023C127.035 20.7423 126.972 22.4776 126.972 22.4946L126.969 22.57ZM125.253 12.7907C125.205 12.7907 125.179 12.7923 125.176 12.7923C118.699 13.5992 119.061 22.0846 119.065 22.1707C119.059 22.263 118.587 30.5553 121.835 33.873C122.769 34.8276 123.934 35.2884 125.296 35.2384C127.085 35.1753 128.502 34.5461 129.508 33.3676C131.624 30.8892 131.282 26.7115 131.222 26.1261H127.099V30.9361C127.098 31.0015 127.053 32.5061 126.274 33.2361C126.136 33.3677 125.972 33.4694 125.793 33.5351C125.614 33.6007 125.423 33.6288 125.232 33.6176C124.495 33.5907 123.917 33.1153 123.56 32.2438C123.394 31.827 123.287 31.3889 123.243 30.9423V24.1915H131.282C131.519 19.5323 130.669 16.2146 128.754 14.3292C127.28 12.8776 125.623 12.7907 125.252 12.7907H125.253ZM125.102 35.3984C123.779 35.3984 122.642 34.923 121.722 33.983C118.425 30.6138 118.902 22.2538 118.907 22.1699C118.902 22.0915 118.534 13.4615 125.161 12.6369C125.186 12.6346 127.146 12.5284 128.861 14.2138C130.822 16.1415 131.688 19.5261 131.435 24.2738L131.432 24.3484H123.401V30.9361C123.402 30.9546 123.607 33.4007 125.238 33.4607C125.599 33.4761 125.911 33.3607 126.166 33.1223C126.897 32.4376 126.941 30.9492 126.942 30.9346V25.9692H131.362L131.371 26.0376C131.377 26.0838 131.942 30.7592 129.629 33.4684C128.592 34.6815 127.136 35.3299 125.302 35.3953C125.235 35.3977 125.168 35.399 125.102 35.3992V35.3984ZM113.957 35.1269H117.846V5.15918H113.957V35.1269Z" fill="black"/>
<path fill-rule="evenodd" clip-rule="evenodd" d="M114.036 35.0483H117.768V5.23749H114.036V35.0483ZM113.879 35.2052H117.925V5.08057H113.879V35.2052ZM136.217 14.0475V12.7783H132.359V35.126H136.408C136.408 35.126 136.393 20.1429 136.408 18.5552C136.427 16.6498 139.214 16.5236 139.214 16.5236H140.553V12.5875C138.385 12.2698 136.217 14.0475 136.217 14.0475Z" fill="black"/>
<path fill-rule="evenodd" clip-rule="evenodd" d="M136.49 35.2045H132.282V12.6998H136.298V13.8891C136.801 13.5168 138.691 12.2352 140.568 12.5106L140.634 12.5206V16.6029H139.217C139.214 16.6029 138.524 16.6375 137.846 16.8998C136.954 17.246 136.498 17.8029 136.49 18.5568C136.474 20.126 136.49 34.9775 136.49 35.1268V35.2052V35.2045ZM85.0006 30.5337C85.0006 30.5337 84.8298 32.4183 83.3421 32.4383C81.7483 32.4598 81.3652 30.746 81.3652 30.746V25.3914C81.3652 25.3914 81.4083 24.6929 81.8113 24.2483C82.216 23.8037 84.4267 22.6191 85.0006 22.1106V30.5337ZM83.4275 12.7775C76.796 12.9045 77.689 19.6237 77.689 19.6237H81.6844V16.7152C81.6844 16.7152 81.9613 14.556 83.3637 14.556C84.7667 14.556 84.9367 16.6091 84.9367 16.6091V19.5722C84.7452 19.9106 83.4275 20.8629 83.4275 20.8629C82.9175 21.2014 82.326 21.6522 80.749 22.7045C78.8152 23.9952 77.9644 25.3706 77.9644 25.3706C76.7321 27.3175 77.0837 31.9414 77.7521 33.2222C78.0237 33.7414 79.0275 35.3814 81.3867 35.3814C83.746 35.3814 85.2129 33.8575 85.2129 33.8575V35.1268H88.9744V19.6352C88.9744 12.3975 83.4275 12.7783 83.4275 12.7783V12.7775Z" fill="black"/>
<path fill-rule="evenodd" clip-rule="evenodd" d="M81.4398 30.737C81.4544 30.7962 81.5567 31.1824 81.819 31.5601C82.1944 32.0993 82.709 32.3678 83.3367 32.3601C83.9198 32.3524 84.3621 32.0462 84.6521 31.4493C84.8628 31.0132 84.9128 30.5724 84.9167 30.5309V22.277C84.6028 22.5178 84.0644 22.8493 83.4982 23.197C82.7967 23.6278 82.0721 24.0739 81.8659 24.3008C81.4859 24.7193 81.4398 25.3893 81.4398 25.3962V30.737ZM83.309 32.517C81.6944 32.517 81.2882 30.7801 81.2844 30.7632L81.2821 30.7462V25.3916C81.2844 25.357 81.3313 24.6555 81.749 24.1962C81.9705 23.9524 82.6721 23.5208 83.4151 23.0639C84.0359 22.6816 84.6782 22.287 84.9436 22.0524L85.0744 21.937V30.5416C85.0721 30.5609 84.8798 32.497 83.339 32.517H83.3082H83.309ZM83.359 14.4778C84.8175 14.4778 85.0082 16.5808 85.0105 16.6024V19.5916L85.0005 19.6101C84.8028 19.9593 83.5236 20.887 83.4698 20.9255C83.2775 21.0532 83.0736 21.197 82.8159 21.3785C82.3775 21.6862 81.7775 22.1093 80.7882 22.7685C78.8928 24.0339 78.0351 25.3978 78.0267 25.4116C76.819 27.3201 77.1521 31.9116 77.8175 33.1855C78.1498 33.8224 79.1628 35.3024 81.3821 35.3024C83.6821 35.3024 85.1367 33.8178 85.1513 33.8024L85.2867 33.6616V35.0485H88.8921V19.6347C88.8921 17.1855 88.2559 15.3524 87.0021 14.187C85.4405 12.7362 83.4482 12.8547 83.4282 12.8562H83.4244C81.5213 12.8932 80.0636 13.4824 79.0913 14.6085C77.5259 16.4216 77.7098 19.0878 77.7544 19.5462H81.6005V16.7147C81.6136 16.6139 81.9036 14.4778 83.359 14.4778ZM81.3821 35.4585C79.0759 35.4585 78.0236 33.9201 77.6775 33.2585C76.999 31.9585 76.6605 27.2762 77.8928 25.3278C77.9021 25.3155 78.7744 23.9239 80.7005 22.6385C81.6882 21.9801 82.2875 21.5578 82.7244 21.2501C82.9836 21.0678 83.1875 20.9239 83.379 20.797C83.7321 20.5424 84.6744 19.8278 84.8528 19.5501V16.6078C84.8521 16.5947 84.6728 14.6332 83.359 14.6332C82.0405 14.6332 81.7605 16.7024 81.7582 16.7239V19.7024H77.6151L77.6059 19.6339C77.6021 19.6032 77.2175 16.5378 78.9721 14.5055C79.9744 13.3439 81.4705 12.7362 83.4198 12.6993C83.4998 12.6947 85.5236 12.5978 87.109 14.0716C88.3967 15.2678 89.049 17.1393 89.049 19.6339V35.2047H85.1298V34.0362C84.7098 34.4055 83.3428 35.4578 81.3821 35.4578V35.4585ZM76.1136 9.5347C75.7651 10.6732 74.9682 10.6732 74.8521 10.6732C74.0321 10.6732 73.6759 9.63777 73.6759 8.55008C73.6759 7.84008 73.8459 6.20546 74.9605 6.20546C75.3013 6.20546 75.8582 6.35931 76.0521 7.25777L77.1121 6.92393C77.0428 6.6247 76.5782 5.15239 75.0151 5.17008C73.6375 5.17008 72.4844 6.33393 72.4844 8.60162C72.4844 11.0755 73.9075 11.8124 74.9921 11.8124C75.8582 11.8124 76.4075 11.3585 76.7405 10.8962C77.019 10.5116 77.089 10.1855 77.1659 9.86008L76.1136 9.5347Z" fill="black"/>
<path fill-rule="evenodd" clip-rule="evenodd" d="M75.0424 5.24726H75.0162C73.5262 5.24726 72.5632 6.56418 72.5632 8.6011C72.5632 11.5819 74.5863 11.7334 74.9916 11.7334C75.6878 11.7334 76.2547 11.4357 76.6763 10.8496C76.9263 10.5049 77.0009 10.2157 77.0732 9.91264L76.1655 9.63264C75.8155 10.6688 75.0755 10.7511 74.8524 10.7511C73.9263 10.7511 73.5978 9.56572 73.5978 8.55033C73.5978 8.14495 73.6632 6.12649 74.9609 6.12649C75.2978 6.12649 75.8839 6.26264 76.1093 7.15725L77.017 6.8711C76.9209 6.52418 76.467 5.24726 75.0424 5.24726ZM74.9916 11.8896C74.6116 11.8896 73.8839 11.7988 73.2763 11.1896C72.6993 10.6096 72.4062 9.73879 72.4062 8.6011C72.4062 6.46879 73.4301 5.09033 75.0155 5.09033H75.0424C76.4032 5.09033 77.0316 6.22879 77.1886 6.90572L77.2055 6.97649L75.9932 7.35802L75.9755 7.27341C75.7893 6.41187 75.2601 6.28341 74.9609 6.28341C73.8132 6.28341 73.7555 8.1711 73.7555 8.55033C73.7555 9.49341 74.0424 10.5949 74.8524 10.5949C75.1101 10.5949 75.7401 10.4888 76.0386 9.51187L76.0616 9.43649L77.2601 9.80649L77.2339 9.91495C77.1593 10.2311 77.0816 10.558 76.8047 10.9411C76.4932 11.3742 75.9255 11.8896 74.9916 11.8896ZM78.7701 9.41495C78.7701 9.70572 78.7932 10.9303 79.5901 10.9303C80.3947 10.9303 80.4186 9.68033 80.4186 9.28649C80.4186 8.87495 80.3332 7.81418 79.6055 7.81418C78.917 7.81418 78.7701 8.67879 78.7701 9.41418V9.41495ZM81.4624 9.38879C81.4624 11.0665 80.5109 11.7688 79.6055 11.7688C78.7778 11.7688 77.7255 11.1611 77.7255 9.39725C77.7255 7.86495 78.5147 7.05187 79.4978 7.05187C81.0532 7.05187 81.4632 8.32725 81.4632 9.38879" fill="black"/>
<path fill-rule="evenodd" clip-rule="evenodd" d="M79.6069 7.8923C78.9815 7.8923 78.85 8.72076 78.85 9.41538C78.85 9.84692 78.9223 10.8515 79.5915 10.8515C80.2107 10.8515 80.3407 10.0008 80.3407 9.28692C80.3407 8.95999 80.2884 7.89307 79.6069 7.89307V7.8923ZM79.5915 11.0085C79.0207 11.0085 78.6931 10.4277 78.6931 9.41538C78.6931 8.31692 79.0084 7.73615 79.6069 7.73615C80.4346 7.73615 80.4992 8.92307 80.4992 9.28692C80.4992 10.71 80.0054 11.0085 79.5915 11.0085ZM79.4992 7.13153C78.47 7.13153 77.8054 8.02076 77.8054 9.39769C77.8054 11.09 78.7761 11.6908 79.6069 11.6908C80.8361 11.6908 81.3854 10.5346 81.3854 9.38922C81.3854 8.70999 81.2015 7.13076 79.4992 7.13076V7.13153ZM79.6069 11.8477C78.6323 11.8477 77.6484 11.09 77.6484 9.39769C77.6484 7.92538 78.3746 6.97461 79.4992 6.97461C80.1138 6.97461 81.5431 7.20922 81.5431 9.38999C81.5431 11.0877 80.5707 11.8477 79.6069 11.8477ZM84.6177 7.06153C83.8515 7.06153 83.3869 7.54922 83.1861 7.76307V7.13846H82.1415V11.6923H83.1861V8.56769C83.5577 8.19076 83.8361 7.98538 84.1454 7.98538C84.4707 7.98538 84.5246 8.25922 84.5246 8.50846V11.6923H85.5692V8.22538C85.5692 7.47153 85.26 7.06076 84.6177 7.06076" fill="black"/>
<path fill-rule="evenodd" clip-rule="evenodd" d="M84.604 11.6134H85.491V8.22494C85.491 7.49418 85.2056 7.13879 84.6179 7.13879C83.8802 7.13879 83.434 7.61341 83.244 7.81571L83.1071 7.9611V7.21494H82.2202V11.6126H83.1071V8.53494L83.1302 8.51187C83.4987 8.13879 83.7971 7.90648 84.1456 7.90648C84.4494 7.90648 84.604 8.10879 84.604 8.50725V11.6134ZM85.6487 11.7703H84.4463V8.50725C84.4463 8.19648 84.3563 8.06341 84.1463 8.06341C83.8587 8.06341 83.594 8.26802 83.2648 8.59956V11.7703H82.0625V7.05956H83.2648V7.56879C83.5148 7.32571 83.9563 6.98264 84.6179 6.98264C85.0879 6.98264 85.6487 7.19802 85.6487 8.22494V11.7703ZM88.854 8.46417C88.7233 8.29341 88.4756 8.01956 88.1271 8.01956C87.3533 8.01956 87.3148 9.09802 87.3148 9.44033C87.3148 9.81725 87.4148 10.8096 88.1348 10.8096C88.5063 10.8096 88.7387 10.5188 88.854 10.3734V8.46417ZM89.891 5.20264V11.6919H88.8463V11.1688C88.7156 11.3234 88.3363 11.7688 87.7171 11.7688C86.781 11.7688 86.1771 10.7326 86.1771 9.42264C86.1771 8.10494 86.7963 7.0611 87.7248 7.0611C87.9179 7.0611 88.3902 7.09494 88.8463 7.65956V5.20341H89.891V5.20264Z" fill="black"/>
<path fill-rule="evenodd" clip-rule="evenodd" d="M88.1308 8.09857C87.4923 8.09857 87.3969 8.93933 87.3969 9.44087C87.3969 9.57318 87.4177 10.7324 88.1385 10.7324C88.4562 10.7324 88.6623 10.4924 88.7793 10.3463V8.49241C88.57 8.22703 88.3577 8.09857 88.1308 8.09857ZM88.1385 10.8886C87.4746 10.8886 87.2393 10.1086 87.2393 9.44087C87.2393 8.47395 87.5562 7.94087 88.1308 7.94087C88.4123 7.94087 88.6777 8.10164 88.9208 8.4178L88.9362 8.43857V10.4001L88.92 10.4216C88.7993 10.5732 88.5477 10.8878 88.1385 10.8878V10.8886ZM87.7285 7.13857C86.8769 7.13857 86.2593 8.1001 86.2593 9.42318C86.2593 10.7363 86.8746 11.6901 87.7208 11.6901C88.3023 11.6901 88.6569 11.2747 88.79 11.1186L88.9285 10.957V11.6132H89.8162V5.28241H88.9293V7.88241L88.7893 7.70933C88.4831 7.33164 88.1269 7.1401 87.7277 7.1401L87.7285 7.13857ZM87.72 11.8478C86.7823 11.8478 86.1016 10.8286 86.1016 9.42395C86.1016 8.00933 86.7862 6.98318 87.7285 6.98318C88.1869 6.98318 88.5339 7.21318 88.7716 7.45395V5.12549H89.9739V11.7709H88.7716V11.3732C88.5739 11.5724 88.2208 11.8478 87.7208 11.8478H87.72ZM91.5739 8.92703C91.62 8.08857 92.0539 7.8401 92.4023 7.8401C92.6962 7.8401 93.2223 8.02857 93.2608 8.92703H91.5739ZM94.0816 8.31933C93.8723 7.6178 93.2916 7.06164 92.3946 7.06164C91.2562 7.06164 90.4754 7.97703 90.4754 9.36395C90.4754 10.9047 91.3885 11.7693 92.4331 11.7693C93.5393 11.7693 93.9731 10.8878 94.1123 10.6047L93.2608 10.2109C93.1685 10.3993 92.9669 10.8447 92.4408 10.8447C92.1393 10.8447 91.6131 10.6647 91.5739 9.62087H94.1893C94.2123 9.22703 94.2277 8.82472 94.0816 8.31933Z" fill="black"/>
<path fill-rule="evenodd" clip-rule="evenodd" d="M91.6561 8.8484H93.1753C93.103 7.96456 92.5191 7.9184 92.3999 7.9184C92.2415 7.9184 91.7345 7.98763 91.6561 8.84917V8.8484ZM93.3407 9.00532H91.4884L91.493 8.92302C91.5407 8.06686 91.993 7.76148 92.3999 7.76148C92.5476 7.76148 93.2899 7.81763 93.3376 8.92379L93.3407 9.00532ZM92.3922 7.13917C91.2922 7.13917 90.5522 8.03302 90.5522 9.36379C90.5522 10.9622 91.5261 11.6907 92.4315 11.6907C93.4084 11.6907 93.8376 10.9684 94.0038 10.6422L93.2961 10.3146C93.1868 10.5299 92.9545 10.9222 92.4391 10.9222C92.2284 10.9222 91.5391 10.8292 91.493 9.62302L91.4907 9.54225H94.1138C94.1338 9.15456 94.1345 8.78917 94.0038 8.34148C93.7807 7.58917 93.1776 7.13917 92.3922 7.13917ZM92.4307 11.8469C91.4507 11.8469 90.3945 11.0699 90.3945 9.36379C90.3945 7.93917 91.1976 6.98302 92.3922 6.98302C93.2384 6.98302 93.9138 7.48609 94.1553 8.29686C94.3015 8.79763 94.2915 9.19456 94.2661 9.62532L94.2622 9.69917H91.6545C91.7176 10.6607 92.2207 10.7661 92.4391 10.7661C92.8999 10.7661 93.0822 10.3946 93.1799 10.1946L93.223 10.1076L94.2168 10.5676L94.1815 10.6392C94.033 10.9392 93.5853 11.8469 92.4315 11.8469H92.4307ZM93.7845 5.24609H92.5538L91.5253 6.56456H92.3068L93.7845 5.24609Z" fill="black"/>
<path fill-rule="evenodd" clip-rule="evenodd" d="M91.6848 6.48594H92.2756L93.5779 5.3244H92.591L91.6841 6.48594H91.6848ZM92.3356 6.64287H91.3633L92.5141 5.16748H93.9887L92.3348 6.64287H92.3356ZM100.102 5.29748V9.58594H100.086L97.7333 5.29748H96.5341V11.6921H97.6648V7.2321H97.6794L100.109 11.6921H101.232V5.29748H100.102Z" fill="black"/>
<path fill-rule="evenodd" clip-rule="evenodd" d="M100.158 11.6134H101.154V5.3749H100.182V9.66413H100.056L100.018 9.62337L97.6893 5.37644H96.6155V11.6141H97.5878V7.15337H97.7132L97.7509 7.19413L100.159 11.6134H100.158ZM101.312 11.7703H100.064L97.744 7.5126V11.7703H96.457V5.21875H97.7816L100.024 9.30721V5.21875H101.312V11.7703ZM104.375 9.34952C103.986 9.43106 102.961 9.64952 102.961 10.3626C102.961 10.728 103.217 10.9057 103.459 10.9057C103.832 10.9057 104.228 10.5572 104.375 10.428V9.34952ZM105.313 10.6872C105.313 10.9464 105.385 11.368 105.452 11.5703H104.5C104.462 11.4234 104.432 11.2744 104.412 11.1241C104.229 11.3034 103.877 11.6434 103.269 11.6434C102.617 11.6434 102.023 11.2141 102.023 10.4518C102.023 9.32567 103.145 8.83952 104.375 8.73413V8.60337C104.375 8.1826 104.104 7.92337 103.716 7.92337C103.283 7.92337 102.962 8.16644 102.719 8.52337L102.133 7.98029C102.316 7.72908 102.557 7.52568 102.835 7.38734C103.113 7.24901 103.42 7.17983 103.731 7.18567C104.405 7.18567 105.313 7.42875 105.313 8.66875V10.6872Z" fill="black"/>
<path fill-rule="evenodd" clip-rule="evenodd" d="M104.294 9.4467C103.874 9.53747 103.037 9.75901 103.037 10.3629C103.037 10.6829 103.254 10.8282 103.456 10.8282C103.781 10.8282 104.144 10.5236 104.294 10.3929V9.44593V9.4467ZM103.456 10.9852C103.169 10.9852 102.879 10.7713 102.879 10.3629C102.879 9.58132 103.952 9.35747 104.356 9.27362L104.451 9.25362V10.4629L104.424 10.4859C104.271 10.6229 103.862 10.9844 103.456 10.9844V10.9852ZM103.713 7.84516C104.154 7.84516 104.451 8.15055 104.451 8.60439V8.80593L104.379 8.81209C103.693 8.87055 102.099 9.14824 102.099 10.4521C102.099 11.2167 102.704 11.5652 103.266 11.5652C103.844 11.5652 104.175 11.2421 104.354 11.069L104.465 10.9605L104.487 11.1144C104.5 11.2082 104.518 11.3259 104.558 11.4921H105.345C105.279 11.2287 105.24 10.959 105.231 10.6875V8.66901C105.231 7.50747 104.414 7.26439 103.728 7.26439C103.125 7.26439 102.611 7.50824 102.237 7.97209L102.704 8.40516C102.981 8.03362 103.319 7.84516 103.713 7.84516ZM103.266 11.7221C102.608 11.7221 101.941 11.2859 101.941 10.4529C101.941 9.45824 102.798 8.80824 104.294 8.66285V8.60439C104.294 8.23824 104.065 8.00209 103.713 8.00209C103.349 8.00209 103.036 8.19209 102.782 8.56747L102.73 8.64285L102.024 7.98901L102.067 7.93285C102.257 7.67215 102.508 7.46108 102.797 7.31743C103.086 7.17378 103.405 7.10177 103.728 7.10747C104.348 7.10747 105.39 7.31055 105.39 8.66901V10.6875C105.39 10.9413 105.461 11.3505 105.525 11.5467L105.558 11.649H104.436L104.421 11.5898C104.395 11.4891 104.373 11.3875 104.355 11.2852C104.148 11.4705 103.799 11.7221 103.267 11.7221H103.266ZM107.932 8.96901C107.506 8.8667 107.104 8.77285 107.104 8.37055C107.104 8.10516 107.344 7.83978 107.723 7.83978C107.994 7.83978 108.203 7.95132 108.551 8.19055L108.651 8.25978L109.255 7.70285C108.954 7.45439 108.466 7.06055 107.715 7.06055C106.794 7.06055 106.129 7.70285 106.129 8.47285C106.129 9.59439 107.166 9.83439 107.614 9.91978C108.032 9.9967 108.381 10.1167 108.381 10.4675C108.381 10.8013 108.032 10.9213 107.731 10.9213C107.22 10.9213 106.895 10.6475 106.663 10.4505L106.028 10.9382C106.291 11.2467 106.756 11.769 107.715 11.769C108.992 11.769 109.425 10.9382 109.425 10.3052C109.425 9.31209 108.481 9.09747 107.932 8.96978" fill="black"/>
<path fill-rule="evenodd" clip-rule="evenodd" d="M106.145 10.9508C106.396 11.2393 106.843 11.6908 107.718 11.6908C108.324 11.6908 109.35 11.3985 109.35 10.3055C109.35 9.38084 108.46 9.17315 107.928 9.0493L107.916 9.04622L107.934 8.9693L107.907 9.04392C107.474 8.94007 107.027 8.83238 107.027 8.37084C107.027 8.07084 107.289 7.76161 107.725 7.76161C108.017 7.76161 108.239 7.8793 108.598 8.12622L108.646 8.1593L109.138 7.70699C108.848 7.47238 108.392 7.1393 107.717 7.1393C106.872 7.1393 106.21 7.72545 106.21 8.47315C106.21 9.57161 107.28 9.77622 107.631 9.84315C108.062 9.92238 108.462 10.0531 108.462 10.4678C108.462 10.8608 108.07 11.0001 107.733 11.0001C107.228 11.0001 106.892 10.7447 106.663 10.5516L106.144 10.9508H106.145ZM107.718 11.8478C106.703 11.8478 106.209 11.2678 105.972 10.9893L105.918 10.927L106.668 10.3501L106.716 10.3908C106.942 10.5816 107.25 10.8431 107.733 10.8431C107.997 10.8431 108.305 10.7447 108.305 10.4678C108.305 10.2216 108.108 10.0908 107.603 9.99699C106.574 9.80084 106.053 9.28853 106.053 8.47392C106.053 7.63776 106.784 6.98315 107.718 6.98315C108.506 6.98315 109.008 7.39622 109.308 7.64238L109.377 7.70007L108.662 8.3593L108.51 8.25622C108.171 8.02238 107.977 7.91853 107.726 7.91853C107.387 7.91853 107.186 8.14853 107.186 8.37084C107.186 8.68622 107.473 8.77853 107.945 8.89161L107.935 8.97007L107.953 8.89315L107.935 8.97007L107.964 8.89622C108.503 9.02238 109.507 9.25699 109.507 10.3055C109.507 11.0731 108.953 11.8478 107.718 11.8478ZM112.339 7.96853V7.13776H111.611V5.66699H110.566V7.13853H109.94V7.96853H110.566V10.3916C110.566 10.8447 110.721 11.2901 111.085 11.5555C111.379 11.7778 111.75 11.7862 112.339 11.7608V10.8193C111.944 10.8108 111.611 10.7847 111.611 10.3908V7.96776H112.339V7.96853Z" fill="black"/>
<path fill-rule="evenodd" clip-rule="evenodd" d="M110.017 7.88971H110.643V10.3905C110.643 10.6689 110.706 11.1828 111.129 11.492C111.399 11.6951 111.756 11.7051 112.258 11.6843V10.8959C111.929 10.8866 111.531 10.8443 111.531 10.3912V7.88971H112.258V7.21586H111.531V5.74356H110.643V7.21586H110.017V7.88971ZM111.955 11.8489C111.574 11.8489 111.282 11.8036 111.036 11.6174C110.682 11.3589 110.486 10.9228 110.486 10.3905V8.04663H109.859V7.05971H110.486V5.5874H111.688V7.05971H112.416V8.04586H111.688V10.3897C111.688 10.6789 111.88 10.7297 112.339 10.7397L112.416 10.7412V11.8343L112.34 11.8374C112.202 11.8436 112.074 11.8482 111.955 11.8482V11.8489Z" fill="black"/>
</g>
<defs>
<clipPath id="clip0_3360_77318">
<rect width="83.0769" height="30" fill="white" transform="translate(58.4609 5)"/>
</clipPath>
</defs>
</svg>
