<svg width="71" height="70" viewBox="0 0 71 70" fill="none" xmlns="http://www.w3.org/2000/svg">
<g clip-path="url(#clip0_1669_2850)">
<path d="M12.4609 46.2185L14.9854 45.3732C15.5337 45.1904 16.0477 44.9048 16.4817 44.5393C17.8982 43.3285 21.6791 40.5071 26.1682 40.5071C30.1434 40.5071 33.0105 42.7117 34.3812 44.0596C35.078 44.7449 35.9918 45.1561 36.9627 45.2818L41.0407 45.7958C42.9825 46.0357 44.4446 47.692 44.4446 49.6453C44.4446 50.9018 43.4166 51.9298 42.1601 51.9298H33.9014C33.3189 51.9298 32.7477 51.8156 32.1995 51.5986L27.3105 49.6453" stroke="#635478" stroke-width="2.28455" stroke-linecap="round" stroke-linejoin="round"/>
<path d="M48.3512 46.4011L54.5766 44.2194C56.8497 43.4198 59.3628 44.505 60.2651 46.6753C60.3794 46.9494 60.4365 47.235 60.4365 47.5206C60.4365 48.2973 60.0253 49.0398 59.3171 49.4624C54.1426 52.5009 38.2078 61.068 35.8662 61.068C32.1423 61.068 23.9751 58.8976 20.7881 58.0181C19.9314 57.7668 19.0176 57.7896 18.1609 58.0752L12.4609 59.9257" stroke="#635478" stroke-width="2.28455" stroke-linecap="round" stroke-linejoin="round"/>
<path d="M41.9996 11.3677L45.2437 16.862C45.4036 17.1362 45.6663 17.3303 45.9748 17.3989L52.2002 18.781C53.0454 18.9752 53.3881 20.0033 52.8056 20.6544L48.5791 25.4405C48.3735 25.6804 48.2707 25.9888 48.2936 26.3086L48.899 32.6597C48.9789 33.5278 48.1108 34.1675 47.3112 33.8134L41.4513 31.2775C41.1658 31.1519 40.8345 31.1519 40.5375 31.2775L34.6777 33.8134C33.8781 34.1561 32.9985 33.5278 33.0899 32.6597L33.6953 26.3086C33.7296 25.9888 33.6268 25.6804 33.4097 25.4405L29.1833 20.6544C28.6122 20.0033 28.9434 18.9752 29.7887 18.781L36.0141 17.3989C36.3225 17.3303 36.5853 17.1362 36.7452 16.862L39.9892 11.3677C40.4347 10.6138 41.5199 10.6138 41.954 11.3677H41.9996Z" stroke="#635478" stroke-width="2.28455" stroke-linecap="round" stroke-linejoin="round"/>
<path d="M41.0195 38.7933V36.5088" stroke="#635478" stroke-width="2.28455" stroke-linecap="round" stroke-linejoin="round"/>
<path d="M49.9062 13.0927L51.5169 11.4821" stroke="#635478" stroke-width="2.28455" stroke-linecap="round" stroke-linejoin="round"/>
<path d="M26.168 28.9927L28.3154 28.2159" stroke="#635478" stroke-width="2.28455" stroke-linecap="round" stroke-linejoin="round"/>
<path d="M53.7188 28.2159L55.8662 28.9927" stroke="#635478" stroke-width="2.28455" stroke-linecap="round" stroke-linejoin="round"/>
<path d="M30.5195 11.4821L32.1301 13.0927" stroke="#635478" stroke-width="2.28455" stroke-linecap="round" stroke-linejoin="round"/>
</g>
<defs>
<clipPath id="clip0_1669_2850">
<rect width="50.2601" height="52.5447" fill="white" transform="translate(11.4922 9.33337)"/>
</clipPath>
</defs>
</svg>
