<svg width="200" height="40" viewBox="0 0 200 40" fill="none" xmlns="http://www.w3.org/2000/svg">
<path d="M110.511 14.6601C108.991 14.6601 107.797 14.9861 106.603 15.6368C106.603 12.1633 106.603 9.01577 106.712 7.93066L99.4388 9.23267V9.88399L100.199 9.99244C101.175 10.2093 101.502 10.7516 101.717 12.0548C101.936 14.6601 101.826 28.5546 101.717 30.8346C103.671 31.269 105.734 31.595 107.797 31.595C113.55 31.595 117.024 28.0124 117.024 22.3675C117.024 17.9173 114.202 14.6601 110.511 14.6601ZM108.014 30.4001C107.579 30.4001 107.036 30.4001 106.711 30.2923C106.602 28.7728 106.494 22.3675 106.602 16.7231C107.253 16.5056 107.687 16.3972 108.231 16.3972C110.62 16.3972 111.923 19.2193 111.923 22.6922C111.922 27.0357 110.294 30.4001 108.014 30.4001ZM72.0823 8.36446H52.9766V9.34112L54.0623 9.44957C55.4728 9.66646 56.0162 10.5347 56.2325 12.5971C56.5591 16.505 56.45 23.5616 56.2325 26.9254C56.0156 28.9884 55.4734 29.9657 54.0623 30.0729L52.9766 30.2911V31.1593H65.2431V30.2911L63.9405 30.0729C62.5294 29.9651 61.9865 28.9884 61.7697 26.9254C61.6606 25.5137 61.5521 23.2338 61.5521 20.4122L64.1574 20.5207C65.786 20.5207 66.5451 21.8233 66.8711 23.6682H67.8484V15.9634H66.8711C66.5445 17.8089 65.786 19.1109 64.1574 19.1109L61.5528 19.2199C61.5528 15.5289 61.6612 12.0555 61.7703 9.99306H65.5691C68.501 9.99306 70.0205 11.8379 71.1056 15.0951L72.1913 14.7692L72.0823 8.36446Z" fill="black"/>
<path d="M78.27 14.4432C83.6981 14.4432 86.4118 18.1342 86.4118 23.0187C86.4118 27.6864 83.3721 31.5956 77.944 31.5956C72.5166 31.5956 69.8029 27.9039 69.8029 23.0187C69.8029 18.3511 72.842 14.4432 78.27 14.4432ZM77.944 15.5289C75.5557 15.5289 74.9044 18.7855 74.9044 23.0187C74.9044 27.1435 75.9901 30.5086 78.1616 30.5086C80.6565 30.5086 81.3091 27.252 81.3091 23.0187C81.3091 18.8939 80.2246 15.5289 77.944 15.5289ZM118.434 23.1278C118.434 18.6771 121.256 14.4432 126.793 14.4432C131.351 14.4432 133.523 17.8088 133.523 22.259H123.427C123.318 26.2753 125.272 29.2066 129.181 29.2066C130.918 29.2066 131.786 28.7734 132.872 28.013L133.305 28.5552C132.22 30.0748 129.832 31.5956 126.793 31.5956C121.908 31.5949 118.434 28.1215 118.434 23.1278ZM123.427 21.0654L128.529 20.9563C128.529 18.7855 128.203 15.5289 126.358 15.5289C124.513 15.5289 123.535 18.568 123.427 21.0654ZM146.443 15.312C145.14 14.7685 143.404 14.4432 141.45 14.4432C137.434 14.4432 134.936 16.8309 134.936 19.6537C134.936 22.4765 136.779 23.6701 139.388 24.5389C142.101 25.5149 142.861 26.2753 142.861 27.578C142.861 28.8806 141.884 30.0742 140.147 30.0742C138.085 30.0742 136.564 28.8806 135.371 25.6234L134.61 25.8415L134.72 30.6176C136.022 31.1599 138.41 31.5949 140.473 31.5949C144.707 31.5949 147.421 29.4228 147.421 26.0584C147.421 23.7785 146.226 22.4765 143.404 21.3901C140.364 20.1966 139.279 19.4368 139.279 18.0251C139.279 16.614 140.258 15.6367 141.561 15.6367C143.513 15.6367 144.816 16.8309 145.794 19.7622L146.554 19.5453L146.443 15.312ZM100.523 14.8776C98.6784 13.7931 95.4211 14.3347 93.6847 18.2433L93.7925 14.4438L86.5202 15.8549V16.5062L87.28 16.6147C88.2579 16.7237 88.6911 17.266 88.8002 18.6777C89.0171 21.2829 88.9086 25.8428 88.8002 28.1221C88.6911 29.4235 88.2579 30.0748 87.28 30.1839L86.5202 30.2929V31.1611H96.6153V30.2929L95.3127 30.1839C94.2276 30.0748 93.9016 29.4235 93.7925 28.1221C93.5756 26.0591 93.5756 21.9343 93.6847 19.329C94.227 18.5686 96.6153 17.9179 98.7862 19.329L100.523 14.8776Z" fill="black"/>
</svg>
