<svg width="200" height="40" viewBox="0 0 200 40" fill="none" xmlns="http://www.w3.org/2000/svg">
<path d="M71.0664 14.6053H73.619V25.3684H71.0664V29.6316H84.7243V25.3684H82.1454V14.6053H84.7243V10H71.0664V14.6053Z" fill="black"/>
<path d="M105.751 25.3684V19.7105C105.751 16.1053 103.119 14.7895 99.8559 14.7895C97.5401 14.7895 95.7769 15.4211 94.2506 17.1842C94.1454 17.3158 94.0138 17.4737 93.8559 17.6053V14.6316H85.4348V18.9211H87.3559V25.3684H85.4348V29.6579H96.119V25.3684H94.0927V21.6579C94.0927 20.0789 95.2769 18.9211 96.8559 18.9211C98.0927 18.9211 99.0664 19.5263 99.0664 20.8684V25.3421H97.0927V29.6316H107.54V25.4211C107.54 25.3947 107.514 25.3684 107.514 25.3421H105.751V25.3684Z" fill="black"/>
<path d="M124.54 24.1053H118.803C118.803 25.6842 117.645 26.4211 116.356 26.4211C113.882 26.4211 113.672 24.3421 113.672 22.3684V22.3158C113.672 20.3421 113.856 18.2632 116.356 18.2632C118.303 18.2632 118.645 19.9474 118.698 21.5526L124.461 20.9211C123.856 15.0526 118.066 14.6842 116.619 14.6842C116.409 14.6842 116.303 14.6842 116.303 14.6842C111.54 14.6842 106.856 17.0263 106.856 22.3421C106.856 23.4737 107.066 24.4737 107.461 25.3421H107.487V25.4211C108.909 28.5789 112.593 30 116.303 30C119.33 30 123.566 29.2632 124.514 24.6053L124.54 24.1053Z" fill="black"/>
<path d="M126.514 29.7105C127.851 29.7105 128.935 28.6266 128.935 27.2895C128.935 25.9524 127.851 24.8684 126.514 24.8684C125.177 24.8684 124.093 25.9524 124.093 27.2895C124.093 28.6266 125.177 29.7105 126.514 29.7105Z" fill="black"/>
</svg>
