<svg width="200" height="40" viewBox="0 0 200 40" fill="none" xmlns="http://www.w3.org/2000/svg">
<g clip-path="url(#clip0_3360_58324)">
<path d="M45.5324 34.6328H41.3519V17.5988H41.2739C40.4219 19.9988 39.4934 22.3988 38.5634 24.8768H37.7894C36.8609 22.4768 36.0089 20.0768 35.0789 17.5208V34.7093H30.8984C30.9764 24.7988 30.9764 15.0428 30.9764 5.28682H34.3829C35.6999 8.69332 36.9374 12.0233 38.2544 15.4298C39.5714 12.0233 40.8869 8.61682 42.1259 5.28682H45.5324V34.6328Z" fill="black"/>
<path d="M64.1924 18.0638V5.21033H68.1419V34.5563H64.9679C64.8899 34.4018 64.7354 34.1693 64.7354 33.9368C64.7354 33.5498 64.5029 33.1628 64.5029 32.7758C64.4249 32.3888 64.3484 32.0018 64.1939 31.6148C64.0394 31.2278 64.1159 30.8408 63.8849 30.5303C63.8849 29.9888 63.5759 29.5238 63.4979 28.9823C63.4199 28.4408 63.2654 27.8978 63.1109 27.4343C62.8784 26.5823 62.8019 25.7303 62.4134 24.8798C62.3354 24.1058 62.1044 23.3318 61.8719 22.6343C61.6394 21.7823 61.5629 20.9303 61.1744 20.0798C61.0199 19.7708 61.0199 19.4603 61.0199 19.1513H60.9419V34.4828H56.9159V5.13682H60.7094C60.7874 5.29132 60.9419 5.52383 60.9419 5.67833C61.0199 6.21983 61.1744 6.83932 61.3289 7.38232C61.4834 7.92532 61.5614 8.46682 61.7939 9.00832C61.9484 9.47332 62.0264 9.86032 62.1809 10.3253C62.2589 10.7903 62.3354 11.1773 62.4899 11.6423C62.7989 12.4163 62.8769 13.2683 63.1874 14.0423C63.3419 14.4293 63.4199 14.8163 63.4964 15.1268C63.5744 15.6683 63.8054 16.2113 63.9614 16.8308C63.9614 16.9853 64.0394 17.0633 64.0394 17.2178C64.0394 17.2958 64.1939 17.4503 64.1174 17.5268C63.8849 17.8358 64.1174 17.9138 64.1954 18.0683L64.1924 18.0638Z" fill="black"/>
<path d="M139.297 19.0703V34.6328H135.426V5.28682H139.219C140.38 9.54532 141.465 13.8038 142.626 18.0623H142.704V5.28682H146.73V34.6328H143.478C142.161 29.4458 140.845 24.2573 139.452 18.9923C139.374 18.9923 139.297 18.9923 139.297 19.0703Z" fill="black"/>
<path d="M131.941 21.2378C132.87 25.7288 133.8 30.1418 134.728 34.5548H130.47C129.618 30.2183 128.689 25.9598 127.837 21.5468H127.372V34.5548H123.192V5.20883H130.935C131.4 5.20883 131.941 5.28682 132.406 5.44132C133.335 5.75032 133.8 6.36983 134.032 7.29983C134.11 7.53233 134.187 7.76483 134.187 7.99733C134.187 8.22983 134.265 8.46233 134.265 8.77133V17.4428C134.265 18.1403 134.11 18.8363 134.032 19.4558C133.954 19.6883 133.878 19.9208 133.723 20.1533C133.336 20.6183 132.949 21.0818 132.252 21.1598C132.174 21.0818 132.019 21.1598 131.943 21.2378H131.941ZM127.374 9.00533V17.7548H129.541C129.696 17.5223 129.85 17.2898 130.006 17.0573V10.3988C130.006 10.0118 130.006 9.62483 129.774 9.15983C129.619 9.08183 129.465 9.00533 129.232 9.00533C128.691 9.00533 128.071 9.00533 127.374 9.00533Z" fill="black"/>
<path d="M109.875 19.8443V31.2263C109.875 32.3108 109.488 33.3173 108.558 34.0133C108.249 34.2458 107.86 34.4003 107.473 34.4783C107.241 34.5563 107.086 34.5563 106.854 34.6328H102.208C101.667 34.6328 101.202 34.4783 100.737 34.2458C99.8849 33.9368 99.2654 33.0068 99.1109 32.1548C99.0329 31.8458 99.0329 31.6133 99.0329 31.3808C98.8004 29.9873 98.9549 28.5158 98.9549 27.1223V9.77782C98.9549 9.08032 98.9549 8.38433 99.1094 7.76483C99.1874 7.29983 99.3419 6.83633 99.5744 6.52583C99.8069 6.21683 100.039 5.90632 100.272 5.75182C100.504 5.51932 100.891 5.44282 101.2 5.28682C101.433 5.28682 101.82 5.20883 102.129 5.20883H106.698C107.085 5.20883 107.472 5.36332 107.859 5.44132C108.787 5.67382 109.33 6.29333 109.639 7.14533C109.794 7.61033 109.948 8.15183 109.872 8.69333C109.872 12.4103 109.872 16.1258 109.872 19.8428L109.875 19.8443ZM105.616 30.6068C105.616 30.3743 105.694 30.1418 105.694 29.9093V9.46882C105.54 9.31432 105.385 9.15982 105.229 9.00382H103.99C103.681 9.00382 103.449 9.00382 103.216 9.15832C103.216 9.54532 102.984 9.85583 102.984 10.2428V25.4183C102.984 27.1223 102.829 28.8248 103.138 30.4508C103.216 30.6053 103.371 30.6833 103.447 30.7598H105.228C105.382 30.7598 105.46 30.6818 105.615 30.6053L105.616 30.6068Z" fill="black"/>
<path d="M111.114 5.21033H115.294V30.4523C115.449 30.6068 115.527 30.6848 115.603 30.7613H117.462C117.616 30.6068 117.771 30.4523 117.927 30.2963V5.21033L118.005 5.13232H122.185V31.0703C122.185 31.7678 121.953 32.5418 121.566 33.2378C121.257 33.7028 120.792 34.0118 120.327 34.2443C119.862 34.3988 119.32 34.4768 118.855 34.4768H114.519C114.132 34.4768 113.745 34.3223 113.358 34.2443C112.429 34.0118 111.654 33.0833 111.423 32.0768C111.345 31.6898 111.345 31.3028 111.345 30.9923C111.112 22.4753 111.112 13.8803 111.112 5.20883L111.114 5.21033Z" fill="black"/>
<path d="M150.679 5.21033H155.79C155.944 5.21033 156.099 5.21033 156.255 5.44283V6.21683C156.255 6.44933 156.333 6.68183 156.333 6.99083C156.333 7.22333 156.255 7.53233 156.487 7.76483V7.84283C156.565 8.46233 156.565 9.00382 156.642 9.62332C156.642 9.93232 156.72 10.1648 156.796 10.3973C156.796 10.6298 156.718 10.9388 156.951 11.1713V11.3258C157.029 11.8673 157.029 12.4868 157.105 13.0298C157.105 13.2623 157.183 13.4948 157.26 13.8038C157.26 14.0363 157.182 14.3453 157.414 14.5778V14.6558C157.336 15.1973 157.569 15.7403 157.569 16.3598C157.569 16.6688 157.647 16.9013 157.647 17.2118C157.647 17.4443 157.569 17.7533 157.801 17.9858V18.1403C157.879 18.6818 157.879 19.3013 157.956 19.8443C157.956 20.0768 158.034 20.3093 158.11 20.6183C158.11 20.8508 158.032 21.1598 158.265 21.3923V21.4703C158.187 22.0118 158.419 22.5548 158.419 23.1743C158.419 23.4068 158.497 23.7158 158.497 23.9483C158.497 24.1808 158.419 24.4898 158.652 24.7223V24.8003C158.73 25.3418 158.73 25.9613 158.806 26.5043C158.806 26.8133 158.884 27.0458 158.961 27.2783C159.039 27.5108 158.806 27.8198 159.115 28.1303V28.2848C159.193 28.8263 159.193 29.4458 159.27 29.9888C159.27 30.2213 159.348 30.4538 159.424 30.7628C159.424 30.9953 159.346 31.3043 159.579 31.5368V31.6913C159.657 32.2328 159.579 32.8523 159.733 33.3953C159.811 33.8603 159.811 34.4018 159.811 34.8668H155.862C155.94 34.1693 155.707 33.4733 155.707 32.7758C155.707 32.5433 155.629 32.2343 155.629 32.0018C155.629 31.7693 155.707 31.4603 155.629 31.2278C155.475 30.6863 155.551 30.1433 155.475 29.5238H152.068C151.914 29.9888 151.914 30.5303 151.914 31.0718C151.914 31.3043 151.759 31.6133 151.759 31.8458C151.759 32.1548 151.837 32.3873 151.681 32.6198V32.6978C151.603 33.3953 151.603 34.0913 151.527 34.7888H147.655C147.655 34.5563 147.577 34.4018 147.733 34.1693V34.0913C147.811 33.5498 147.811 33.0848 147.888 32.5433C147.888 32.2343 147.966 32.0018 148.042 31.7693C148.12 31.5368 147.888 31.2278 148.197 30.9953V30.9173C148.275 30.3758 148.275 29.9108 148.351 29.3693C148.351 29.1368 148.429 28.9043 148.506 28.5953C148.584 28.3628 148.428 28.1303 148.584 27.8978C148.662 27.8198 148.584 27.7433 148.584 27.6653C148.662 27.1238 148.584 26.5808 148.738 26.0393C148.893 25.5743 148.738 25.0328 148.971 24.5678C149.125 24.1028 149.049 23.5613 149.125 23.0198C149.125 22.7108 149.203 22.4783 149.28 22.2458C149.28 21.9368 149.202 21.7043 149.434 21.4718V21.3938C149.512 20.8523 149.512 20.3873 149.589 19.8458C149.589 19.6133 149.667 19.3808 149.743 19.0718C149.821 18.8393 149.665 18.6068 149.898 18.3743V18.2198C149.976 17.6783 149.976 17.1353 150.052 16.5938C150.052 16.3613 150.13 16.1288 150.207 15.8198C150.207 15.5873 150.129 15.2783 150.361 15.0458V14.9678C150.439 14.4263 150.439 13.9613 150.516 13.4198C150.516 13.1108 150.594 12.8783 150.67 12.6458C150.748 12.4133 150.592 12.1043 150.825 11.8718V11.7938C150.903 11.2523 150.903 10.7873 150.979 10.2458C150.979 10.0133 151.057 9.78082 151.134 9.47182C151.212 9.23932 151.056 9.00682 151.212 8.77432V8.69633C151.134 8.15483 151.366 7.68982 151.366 7.14832C151.366 6.91582 151.444 6.68333 151.444 6.45083V5.75333C150.516 5.59883 150.592 5.44432 150.67 5.21182L150.679 5.21033ZM154.629 25.3418C154.551 24.9548 154.474 24.6443 154.474 24.3353C154.396 23.9483 154.552 23.5613 154.396 23.2508C154.318 23.0183 154.396 22.7093 154.396 22.3988C154.396 22.0883 154.318 21.8573 154.318 21.5468C154.318 21.1598 154.318 20.7728 154.24 20.4623C154.162 20.2298 154.24 19.9208 154.24 19.6883C154.24 19.4558 154.162 19.2233 154.162 18.9143C154.162 18.5273 154.162 18.1403 154.084 17.7533C154.006 17.5208 154.084 17.2118 154.084 16.9013C154.084 16.5908 154.006 16.3598 153.93 16.0493C153.93 15.6623 153.93 15.3518 153.852 14.9648C153.774 14.6558 153.852 14.3453 153.852 14.0363C153.852 13.7273 153.697 13.4168 153.697 13.1078C153.697 12.5663 153.619 12.0233 153.543 11.5598C153.388 12.0248 153.234 12.4118 153.31 12.8768C153.31 13.0313 153.388 13.1858 153.31 13.2638C153.078 13.5728 153.232 13.8833 153.232 14.1158C153.154 14.4248 153.154 14.7353 153.078 15.0443C153 15.3533 153.078 15.7418 153 16.0508C152.922 16.2833 153 16.6703 153 16.9793C153 17.2883 152.845 17.5208 152.845 17.8313C152.923 18.5288 152.613 19.1483 152.767 19.7663V19.8443C152.535 20.0768 152.613 20.4638 152.689 20.6963C152.689 21.0053 152.535 21.3158 152.535 21.6248C152.535 22.0118 152.535 22.3988 152.457 22.7858C152.302 23.4833 152.379 24.1028 152.302 24.7988C152.302 24.9533 152.224 25.1078 152.224 25.2638C152.766 25.3418 153.618 25.3418 154.624 25.3418H154.629Z" fill="black"/>
<path d="M71.1614 26.3483H75.3419V29.9093C75.3419 30.1418 75.4199 30.3743 75.4199 30.5288C75.7289 30.7613 75.9614 30.7613 76.2719 30.7613H77.6654C77.7434 30.6833 77.8199 30.5288 77.9744 30.3743V25.7288C77.9744 25.2638 77.7419 24.8003 77.5094 24.4118C77.2769 24.1028 77.1224 23.8703 76.8899 23.6378C76.5029 23.1728 76.0379 22.7093 75.6509 22.2443C75.0314 21.5468 74.4119 20.8508 73.8704 20.1533C73.3289 19.6118 72.8639 18.9923 72.3224 18.3728C71.8574 17.9078 71.5484 17.2883 71.3159 16.6688C71.3159 16.5908 71.2379 16.4363 71.2379 16.2818C71.2379 13.5713 71.1599 10.8623 71.2379 8.15183C71.2379 6.83483 71.9354 5.82832 73.3289 5.28682C73.7939 5.28682 74.2574 5.20883 74.8004 5.20883H78.9044C79.4459 5.20883 79.9889 5.36332 80.4524 5.59582C81.3044 5.98282 81.7694 6.68033 82.0004 7.53083C82.0784 7.99583 82.0784 8.38283 82.0784 8.84783V13.5713H77.8979V9.46732C77.7434 9.31282 77.5889 9.15833 77.4329 9.00233H75.6524C75.4979 9.15683 75.4199 9.23483 75.2654 9.38933V14.7323C75.4199 15.0413 75.6524 15.4298 75.8849 15.8168C75.8849 15.8948 75.9629 15.8948 75.9629 15.9713C76.4279 16.4363 76.8149 16.8998 77.2799 17.3648C77.5124 17.5973 77.6669 17.8298 77.8994 18.0623C78.1319 18.2948 78.4409 18.4493 78.5189 18.7598L78.5969 18.8378C79.0619 19.3028 79.5254 19.7663 79.9139 20.3093C80.4554 21.0068 81.0749 21.5483 81.5399 22.2443C81.8489 22.7093 82.0049 23.1728 82.0049 23.7158V31.3808C82.0049 32.1548 81.6959 32.8523 81.1529 33.4718C80.6879 33.9368 80.1464 34.2458 79.4489 34.4003C79.2944 34.5548 78.9839 34.6328 78.6749 34.6328H74.6489C73.7969 34.6328 72.9449 34.4003 72.2489 33.8588C71.8619 33.5498 71.6294 33.0848 71.4749 32.6198C71.3204 32.1548 71.2424 31.6133 71.2424 31.1483V26.6573C71.1644 26.5793 71.1644 26.5028 71.1644 26.3483H71.1614Z" fill="black"/>
<path d="M50.8754 30.7613H55.5989V34.5548H46.6169V5.20883H55.5209V9.00233H50.7209V17.7518H54.3599V21.5453H50.7209C50.8754 24.6428 50.8754 27.6623 50.8754 30.7598V30.7613Z" fill="black"/>
<path d="M93.5369 5.21033H97.7174V31.2263C97.7174 31.8458 97.4849 32.4653 97.2524 33.0848C96.9434 33.7823 96.4004 34.1693 95.7044 34.4018C95.2394 34.5563 94.7759 34.6343 94.2329 34.6343H89.8964C89.3549 34.6343 88.8899 34.4798 88.4249 34.2473C87.6509 33.9383 87.1859 33.3188 86.8769 32.5433C86.7224 32.0018 86.5679 31.4588 86.6444 30.9173V26.3483H90.8249V29.7548C90.8249 30.1418 90.9794 30.4523 91.2899 30.7613H93.1484C93.5354 30.4523 93.6134 30.0638 93.6134 29.6768V5.90632C93.5354 5.67382 93.5354 5.44133 93.5354 5.20883L93.5369 5.21033Z" fill="black"/>
<path d="M168.798 30.7613C169.03 30.9158 169.03 31.0703 169.03 31.2263V34.5563H160.048V5.21033H164.229C164.151 13.7273 164.151 22.2443 164.151 30.7613H168.798Z" fill="black"/>
<path d="M69.8444 11.8688H68.9159V5.28682H71.0834C71.0834 5.51932 71.1614 5.75182 71.0054 6.06082C70.8509 6.36982 70.9274 6.68032 70.8509 7.06732C70.7729 7.37632 70.7729 7.68682 70.6184 7.99582C70.5404 8.22832 70.5404 8.53732 70.4639 8.76982C70.3859 9.00232 70.4639 9.15683 70.3094 9.38933C70.2314 9.54383 70.3094 9.77633 70.2314 9.93083C70.0769 10.0853 70.3094 10.3958 70.0769 10.5503C70.1549 10.8593 69.9989 11.2478 69.9224 11.5568C69.9224 11.6348 69.8444 11.7893 69.8444 11.8658V11.8688Z" fill="black"/>
</g>
<defs>
<clipPath id="clip0_3360_58324">
<rect width="138.3" height="30" fill="white" transform="translate(30.8516 5)"/>
</clipPath>
</defs>
</svg>
