<svg width="84" height="30" viewBox="0 0 84 30" fill="none" xmlns="http://www.w3.org/2000/svg">
<g clip-path="url(#clip0_3401_58236)">
<path fill-rule="evenodd" clip-rule="evenodd" d="M0.460938 1.01113H0.572004V0.893292L0.460938 1.01113Z" fill="black"/>
<path fill-rule="evenodd" clip-rule="evenodd" d="M0.572004 1.01113L0.574078 3.70744H5.0132V29.7424H9.20619V3.70744H13.5228V1.00506L0.572004 1.01113Z" fill="black"/>
<path fill-rule="evenodd" clip-rule="evenodd" d="M10.8866 8.2845H14.6642V9.51755C14.6642 9.51755 16.7874 7.79107 18.9116 8.09974V11.9222H17.6004C17.6004 11.9222 14.7901 12.0467 14.8524 13.8964C14.9038 15.4381 14.8524 29.6816 14.8524 29.6816H10.8866V8.2845Z" fill="black"/>
<path fill-rule="evenodd" clip-rule="evenodd" d="M29.8322 8.22226H33.9423L36.3699 21.9731L38.6121 8.28385H41.2266L37.2418 29.7425H34.0668L29.8322 8.22226Z" fill="black"/>
<path fill-rule="evenodd" clip-rule="evenodd" d="M48.396 20.9247V25.6723C48.396 25.6723 48.3351 28.2618 46.6589 28.2003C44.984 28.1387 44.7984 25.6723 44.7984 25.6723V19.1982H52.615C53.2352 7.54544 46.5973 7.97728 46.5973 7.97728C40.1455 8.77923 40.5795 17.1639 40.5795 17.1639C40.5795 17.1639 39.773 30.1729 46.7211 29.9266C53.6697 29.6796 52.5527 20.9247 52.5527 20.9247H48.396ZM46.5349 9.57985C46.5349 9.57985 48.2106 9.64143 48.2722 12.7241C48.3351 15.8076 48.2722 17.4725 48.2722 17.4725H44.7984V12.6633C44.7984 12.6633 44.7361 9.57985 46.5349 9.57985Z" fill="black"/>
<path fill-rule="evenodd" clip-rule="evenodd" d="M70.6385 20.9247V25.6723C70.6385 25.6723 70.5769 28.2618 68.902 28.2003C67.2266 28.1387 67.0403 25.6723 67.0403 25.6723V19.1982H74.8575C75.4771 7.54544 68.8398 7.97728 68.8398 7.97728C62.3881 8.77923 62.8214 17.1639 62.8214 17.1639C62.8214 17.1639 62.0156 30.1729 68.9636 29.9266C75.9115 29.6796 74.7952 20.9247 74.7952 20.9247H70.6385ZM68.7775 9.57985C68.7775 9.57985 70.4524 9.64143 70.5146 12.7241C70.5769 15.8076 70.5146 17.4725 70.5146 17.4725H67.0403V12.6633C67.0403 12.6633 66.9781 9.57985 68.7775 9.57985Z" fill="black"/>
<path fill-rule="evenodd" clip-rule="evenodd" d="M53.2541 29.7424H57.1468V0.692383H53.2541V29.7424Z" fill="black"/>
<path fill-rule="evenodd" clip-rule="evenodd" d="M58.276 29.7424H62.1673V0.692383H58.276V29.7424Z" fill="black"/>
<path fill-rule="evenodd" clip-rule="evenodd" d="M75.5122 8.04017H79.2913V9.27337C79.2913 9.27337 81.4141 7.54674 83.5379 7.85482V11.6779H82.2267C82.2267 11.6779 79.497 11.7997 79.478 13.6507C79.4625 15.1924 79.478 29.7425 79.478 29.7425H75.5122V8.04017Z" fill="black"/>
<path fill-rule="evenodd" clip-rule="evenodd" d="M24.7745 8.03814C18.3179 8.16191 19.1872 14.6869 19.1872 14.6869H23.0765V11.8614C23.0765 11.8614 23.346 9.76462 24.7121 9.76462C26.0784 9.76462 26.2435 11.7585 26.2435 11.7585V14.6354C26.0574 14.9643 24.7745 15.8889 24.7745 15.8889C24.2776 16.2184 23.7021 16.6556 22.1668 17.6768C20.284 18.931 19.456 20.2669 19.456 20.2669C18.2556 22.1572 18.5975 26.6476 19.2488 27.8914C19.5129 28.3957 20.4904 29.9882 22.7881 29.9882C25.0846 29.9882 26.5115 28.5082 26.5115 28.5082V29.7412H30.1756V14.697C30.1756 7.66863 24.7745 8.03814 24.7745 8.03814ZM26.3058 25.2819C26.3058 25.2819 26.1392 27.1119 24.6918 27.1315C23.1396 27.1511 22.7671 25.4869 22.7671 25.4869V20.2872C22.7671 20.2872 22.8084 19.609 23.2012 19.1773C23.5951 18.7455 25.7465 17.5949 26.3058 17.1016V25.2819Z" fill="black"/>
<path fill-rule="evenodd" clip-rule="evenodd" d="M18.0198 2.82339C17.8282 1.94283 17.2785 1.79197 16.9421 1.79197C15.8413 1.79197 15.6734 3.39261 15.6734 4.08827C15.6734 5.15284 16.0254 6.16664 16.8351 6.16664C16.9501 6.16664 17.7368 6.16664 18.0807 5.05277L19.1193 5.3715C19.0434 5.6895 18.9743 6.00838 18.6996 6.3853C18.3705 6.83802 17.8282 7.282 16.9726 7.282C15.9022 7.282 14.4968 6.56133 14.4968 4.13905C14.4968 1.91781 15.6353 0.778174 16.9955 0.778174C18.5398 0.761149 18.9974 2.20279 19.0664 2.49577L18.0198 2.82339Z" fill="black"/>
<path fill-rule="evenodd" clip-rule="evenodd" d="M18.0198 2.82339C17.8282 1.94283 17.2785 1.79197 16.9421 1.79197C15.8413 1.79197 15.6734 3.39261 15.6734 4.08827C15.6734 5.15284 16.0254 6.16664 16.8351 6.16664C16.9501 6.16664 17.7368 6.16664 18.0807 5.05277L19.1193 5.3715C19.0434 5.6895 18.9743 6.00838 18.6996 6.3853C18.3705 6.83802 17.8282 7.282 16.9726 7.282C15.9022 7.282 14.4968 6.56133 14.4968 4.13905C14.4968 1.91781 15.6353 0.778174 16.9955 0.778174C18.5398 0.761149 18.9974 2.20279 19.0664 2.49577L18.0198 2.82339Z" fill="black"/>
<path fill-rule="evenodd" clip-rule="evenodd" d="M23.0461 4.81806C23.0461 6.4754 22.1016 7.16913 21.2027 7.16913C20.3808 7.16913 19.3355 6.56882 19.3355 4.8262C19.3355 3.31157 20.1194 2.50889 21.0956 2.50889C22.6392 2.50889 23.0461 3.76829 23.0461 4.81806ZM20.3725 4.84308C20.3725 5.12999 20.3958 6.34009 21.1878 6.34009C21.9865 6.34009 22.0089 5.10571 22.0089 4.71591C22.0089 4.30968 21.9243 3.26139 21.2027 3.26139C20.519 3.26139 20.3725 4.11545 20.3725 4.84308Z" fill="black"/>
<path fill-rule="evenodd" clip-rule="evenodd" d="M23.0461 4.81806C23.0461 6.4754 22.1016 7.16913 21.2027 7.16913C20.3808 7.16913 19.3355 6.56882 19.3355 4.8262C19.3355 3.31157 20.1194 2.50889 21.0956 2.50889C22.6392 2.50889 23.0461 3.76829 23.0461 4.81806ZM20.3725 4.84308C20.3725 5.12999 20.3958 6.34009 21.1878 6.34009C21.9865 6.34009 22.0089 5.10571 22.0089 4.71591C22.0089 4.30968 21.9243 3.26139 21.2027 3.26139C20.519 3.26139 20.3725 4.11545 20.3725 4.84308Z" fill="black"/>
<path fill-rule="evenodd" clip-rule="evenodd" d="M26.8068 7.09538H25.7663V3.94695C25.7663 3.70208 25.7119 3.43057 25.3878 3.43057C25.0798 3.43057 24.8028 3.63369 24.4319 4.00587V7.09538H23.392V2.59206H24.4319V3.21073C24.6322 2.99888 25.0953 2.517 25.8583 2.517C26.498 2.517 26.8068 3.66818 26.8068 3.66818V7.09538Z" fill="black"/>
<path fill-rule="evenodd" clip-rule="evenodd" d="M26.8068 7.09538H25.7663V3.94695C25.7663 3.70208 25.7119 3.43057 25.3878 3.43057C25.0798 3.43057 24.8028 3.63369 24.4319 4.00587V7.09538H23.392V2.59206H24.4319V3.21073C24.6322 2.99888 25.0953 2.517 25.8583 2.517C26.498 2.517 26.8068 3.66818 26.8068 3.66818V7.09538Z" fill="black"/>
<path fill-rule="evenodd" clip-rule="evenodd" d="M30.7739 0.739076V7.09338H29.7367V6.58248C29.6054 6.73334 29.2289 7.16917 28.615 7.16917C27.6855 7.16917 27.0856 6.15538 27.0856 4.87214C27.0856 3.5815 27.7004 2.55823 28.6225 2.55823C28.8147 2.55823 29.2833 2.59139 29.7367 3.14566V0.739076H30.7739ZM29.7443 3.93355C29.6135 3.76567 29.3678 3.49756 29.0219 3.49756C28.2541 3.49756 28.215 4.5534 28.215 4.88916C28.215 5.25794 28.3151 6.22984 29.0293 6.22984C29.3982 6.22984 29.6292 5.94545 29.7443 5.80274V3.93355Z" fill="black"/>
<path fill-rule="evenodd" clip-rule="evenodd" d="M30.7739 0.739076V7.09338H29.7367V6.58248C29.6054 6.73334 29.2289 7.16917 28.615 7.16917C27.6855 7.16917 27.0856 6.15538 27.0856 4.87214C27.0856 3.5815 27.7004 2.55823 28.6225 2.55823C28.8147 2.55823 29.2833 2.59139 29.7367 3.14566V0.739076H30.7739ZM29.7443 3.93355C29.6135 3.76567 29.3678 3.49756 29.0219 3.49756C28.2541 3.49756 28.215 4.5534 28.215 4.88916C28.215 5.25794 28.3151 6.22984 29.0293 6.22984C29.3982 6.22984 29.6292 5.94545 29.7443 5.80274V3.93355Z" fill="black"/>
<path fill-rule="evenodd" clip-rule="evenodd" d="M32.2687 5.06507C32.3066 6.08775 32.8292 6.26363 33.1293 6.26363C33.6519 6.26363 33.8515 5.82779 33.9436 5.64377L34.7884 6.02883C34.6504 6.30626 34.2205 7.1698 33.1217 7.1698C32.0846 7.1698 31.1788 6.32255 31.1788 4.81325C31.1788 3.4551 31.9546 2.55826 33.0838 2.55826C33.9748 2.55826 34.5502 3.10306 34.7573 3.78998C34.9035 4.28533 34.8886 4.67868 34.8649 5.06507H32.2687ZM33.9436 4.38555C33.9051 3.50573 33.3829 3.32023 33.0913 3.32023C32.7453 3.32023 32.3148 3.56391 32.2687 4.38555H33.9436ZM34.4662 0.780409L32.9985 2.07164H32.2227L33.2443 0.780409H34.4662Z" fill="black"/>
<path fill-rule="evenodd" clip-rule="evenodd" d="M32.2687 5.06507C32.3066 6.08775 32.8292 6.26363 33.1293 6.26363C33.6519 6.26363 33.8515 5.82779 33.9436 5.64377L34.7884 6.02883C34.6504 6.30626 34.2205 7.1698 33.1217 7.1698C32.0846 7.1698 31.1788 6.32255 31.1788 4.81325C31.1788 3.4551 31.9546 2.55826 33.0838 2.55826C33.9748 2.55826 34.5502 3.10306 34.7573 3.78998C34.9035 4.28533 34.8886 4.67868 34.8649 5.06507H32.2687ZM33.9436 4.38555C33.9051 3.50573 33.3829 3.32023 33.0913 3.32023C32.7453 3.32023 32.3148 3.56391 32.2687 4.38555H33.9436ZM34.4662 0.780409L32.9985 2.07164H32.2227L33.2443 0.780409H34.4662Z" fill="black"/>
<path fill-rule="evenodd" clip-rule="evenodd" d="M38.2871 0.829071L40.6038 5.03186H40.6187V0.829071H41.7304V7.09543H40.6268L38.2344 2.7255H38.2187V7.09543H37.1064V0.829071H38.2871Z" fill="black"/>
<path fill-rule="evenodd" clip-rule="evenodd" d="M38.2871 0.829071L40.6038 5.03186H40.6187V0.829071H41.7304V7.09543H40.6268L38.2344 2.7255H38.2187V7.09543H37.1064V0.829071H38.2871Z" fill="black"/>
<path fill-rule="evenodd" clip-rule="evenodd" d="M45.4877 6.1026C45.4877 6.35901 45.5614 6.77738 45.6284 6.97768H44.6711C44.6197 6.77738 44.5981 6.64059 44.5832 6.53562C44.3989 6.71239 44.0457 7.04948 43.435 7.04948C42.7797 7.04948 42.1838 6.6243 42.1838 5.86973C42.1838 4.75511 43.3097 4.27323 44.5467 4.16901V4.04036C44.5467 3.62288 44.2745 3.36691 43.8839 3.36691C43.4498 3.36691 43.1263 3.60733 42.884 3.95982L42.2949 3.42243C42.7146 2.87704 43.2807 2.63602 43.8981 2.63602C44.5758 2.63602 45.4877 2.87704 45.4877 4.10476V6.1026ZM44.5467 4.7788C44.1567 4.85859 43.1263 5.07592 43.1263 5.78179C43.1263 6.14316 43.3835 6.31978 43.6267 6.31978C44.0016 6.31978 44.3989 5.97469 44.5467 5.84604V4.7788Z" fill="black"/>
<path fill-rule="evenodd" clip-rule="evenodd" d="M45.4877 6.1026C45.4877 6.35901 45.5614 6.77738 45.6284 6.97768H44.6711C44.6197 6.77738 44.5981 6.64059 44.5832 6.53562C44.3989 6.71239 44.0457 7.04948 43.435 7.04948C42.7797 7.04948 42.1838 6.6243 42.1838 5.86973C42.1838 4.75511 43.3097 4.27323 44.5467 4.16901V4.04036C44.5467 3.62288 44.2745 3.36691 43.8839 3.36691C43.4498 3.36691 43.1263 3.60733 42.884 3.95982L42.2949 3.42243C42.7146 2.87704 43.2807 2.63602 43.8981 2.63602C44.5758 2.63602 45.4877 2.87704 45.4877 4.10476V6.1026ZM44.5467 4.7788C44.1567 4.85859 43.1263 5.07592 43.1263 5.78179C43.1263 6.14316 43.3835 6.31978 43.6267 6.31978C44.0016 6.31978 44.3989 5.97469 44.5467 5.84604V4.7788Z" fill="black"/>
<path fill-rule="evenodd" clip-rule="evenodd" d="M48.461 3.70066L48.3593 3.63301C48.0094 3.39614 47.7988 3.28644 47.5266 3.28644C47.1448 3.28644 46.9039 3.54847 46.9039 3.81036C46.9039 4.2083 47.3088 4.30172 47.7366 4.40313C48.2891 4.5297 49.2395 4.74081 49.2395 5.72219C49.2395 6.34885 48.8036 7.1699 47.5186 7.1699C46.5532 7.1699 46.0861 6.65338 45.8221 6.34885L46.4598 5.86638C46.694 6.06121 47.0203 6.33138 47.5349 6.33138C47.8374 6.33138 48.1881 6.21295 48.1881 5.88326C48.1881 5.53669 47.8374 5.4184 47.417 5.34187C46.9661 5.25733 45.9229 5.02046 45.9229 3.91251C45.9229 3.15038 46.5925 2.51632 47.5186 2.51632C48.2734 2.51632 48.7643 2.90537 49.0676 3.15038L48.461 3.70066Z" fill="black"/>
<path fill-rule="evenodd" clip-rule="evenodd" d="M48.461 3.70066L48.3593 3.63301C48.0094 3.39614 47.7988 3.28644 47.5266 3.28644C47.1448 3.28644 46.9039 3.54847 46.9039 3.81036C46.9039 4.2083 47.3088 4.30172 47.7366 4.40313C48.2891 4.5297 49.2395 4.74081 49.2395 5.72219C49.2395 6.34885 48.8036 7.1699 47.5186 7.1699C46.5532 7.1699 46.0861 6.65338 45.8221 6.34885L46.4598 5.86638C46.694 6.06121 47.0203 6.33138 47.5349 6.33138C47.8374 6.33138 48.1881 6.21295 48.1881 5.88326C48.1881 5.53669 47.8374 5.4184 47.417 5.34187C46.9661 5.25733 45.9229 5.02046 45.9229 3.91251C45.9229 3.15038 46.5925 2.51632 47.5186 2.51632C48.2734 2.51632 48.7643 2.90537 49.0676 3.15038L48.461 3.70066Z" fill="black"/>
<path fill-rule="evenodd" clip-rule="evenodd" d="M50.9935 1.18168V2.62584H51.732V3.44082H50.9935V5.81691C50.9935 6.20404 51.3312 6.22906 51.732 6.2372V7.16099C51.1349 7.18616 50.7571 7.17727 50.4593 6.95935C50.0895 6.69939 49.9333 6.26222 49.9333 5.81691V3.44082H49.2969V2.62584H49.9333V1.18168H50.9935Z" fill="black"/>
<path fill-rule="evenodd" clip-rule="evenodd" d="M50.9935 1.18168V2.62584H51.732V3.44082H50.9935V5.81691C50.9935 6.20404 51.3312 6.22906 51.732 6.2372V7.16099C51.1349 7.18616 50.7571 7.17727 50.4593 6.95935C50.0895 6.69939 49.9333 6.26222 49.9333 5.81691V3.44082H49.2969V2.62584H49.9333V1.18168H50.9935Z" fill="black"/>
</g>
<defs>
<clipPath id="clip0_3401_58236">
<rect width="83.0769" height="30" fill="white" transform="translate(0.460938)"/>
</clipPath>
</defs>
</svg>
