<svg width="200" height="40" viewBox="0 0 200 40" fill="none" xmlns="http://www.w3.org/2000/svg">
<g clip-path="url(#clip0_3360_58285)">
<path d="M27.3245 17.0957V8.0192H29.7782C34.0788 8.0192 35.4772 9.54425 35.4772 12.2992C35.4772 15.2263 34.5273 17.0957 30.1212 17.0957C30.1476 17.0957 27.3245 17.0957 27.3245 17.0957ZM27.3245 17.9566H29.9893C33.6303 17.9566 34.7384 18.6208 35.0814 21.6463L35.3452 24.2782C35.6355 27.0578 36.3478 28.0909 40.1999 28.0909C40.8595 28.0909 41.7829 27.9925 42.3897 27.8449V27.1808C39.8041 27.107 39.1445 26.6888 38.7224 24.3766L38.4058 22.3104C37.9572 19.5555 37.1657 17.8583 32.7596 17.5385V17.4401C37.2449 16.7022 38.9598 14.759 38.9598 12.2008C38.9598 9.44586 36.6644 7.15828 30.0421 7.15828H20.6758V7.82242C23.5252 7.92081 24.2376 8.46196 24.2376 9.59345V25.4097C24.2376 26.5412 23.5252 27.0578 20.6758 27.1562V27.8695H30.8336V27.1562C27.8522 27.0578 27.3509 26.615 27.3509 25.4097L27.3245 17.9566ZM48.4844 28.1401C52.6003 28.1401 55.8191 25.09 55.8191 20.81C55.8191 16.5546 52.785 13.6275 48.4844 13.6275C44.3158 13.6275 41.0705 16.6776 41.0705 20.933C41.0705 25.213 44.1047 28.1401 48.4844 28.1401ZM48.6163 27.3775C46.0043 27.3775 44.1838 25.5081 44.1838 20.8592C44.1838 16.1856 45.7141 14.3408 48.2997 14.3408C50.9117 14.3408 52.7322 16.161 52.7322 20.8592C52.7322 25.5081 51.1492 27.3775 48.6163 27.3775ZM57.323 28.2631H57.8771L59.2491 26.6396C60.8585 27.7219 62.4679 28.1401 64.2092 28.1401C68.5098 28.1401 71.1482 24.5734 71.1482 20.4656C71.1482 16.53 68.8528 13.6275 65.0008 13.6275C62.9692 13.6275 61.5181 14.3654 60.1989 15.6199V6.29736L54.7902 6.42035V7.05989C56.9537 7.13368 57.455 7.57644 57.455 8.58495V25.5819L57.323 28.2631ZM63.9454 27.3775C62.336 27.3775 60.8585 26.5166 60.1725 24.721V16.4316C61.1487 15.4969 62.2832 14.9065 63.8135 14.9065C66.3991 14.9065 68.1141 17.2925 68.1141 20.6132C68.1141 24.7702 66.7949 27.3775 63.9454 27.3775ZM72.5202 28.2631H73.1006L74.4726 26.6396C76.082 27.7219 77.6914 28.1401 79.4327 28.1401C83.7333 28.1401 86.3717 24.5734 86.3717 20.4656C86.3717 16.53 84.0763 13.6275 80.2243 13.6275C78.1927 13.6275 76.7416 14.3654 75.4224 15.6199V6.29736L70.0137 6.42035V7.05989C72.1772 7.13368 72.6785 7.57644 72.6785 8.58495V25.5819L72.5202 28.2631ZM79.1425 27.3775C77.5331 27.3775 76.0556 26.5166 75.3696 24.721V16.4316C76.3458 15.4969 77.4803 14.9065 79.0106 14.9065C81.5962 14.9065 83.3112 17.2925 83.3112 20.6132C83.3112 24.7702 81.992 27.3775 79.1425 27.3775ZM97.0044 17.0957V8.0192H99.4581C103.759 8.0192 105.157 9.54425 105.157 12.2992C105.157 15.2263 104.207 17.0957 99.8011 17.0957H97.0044ZM97.0044 17.9566H99.6692C103.31 17.9566 104.418 18.6208 104.761 21.6463L105.025 24.2782C105.315 27.0578 106.028 28.0909 109.88 28.0909C110.539 28.0909 111.463 27.9925 112.07 27.8449V27.1808C109.484 27.107 108.824 26.6888 108.402 24.3766L108.086 22.3104C107.637 19.5555 106.846 17.8583 102.44 17.5385V17.4401C106.925 16.7022 108.64 14.759 108.64 12.2008C108.64 9.44586 106.344 7.15828 99.722 7.15828H90.3557V7.82242C93.2051 7.92081 93.9175 8.46196 93.9175 9.59345V25.4097C93.9175 26.5412 93.2051 27.0578 90.3557 27.1562V27.8695H100.513V27.1562C97.5321 27.0578 97.0308 26.615 97.0308 25.4097V17.9566H97.0044ZM117.98 28.1401C121.278 28.1401 122.993 26.3936 124.206 24.4996L123.705 24.1061C122.359 25.6557 121.014 26.738 119.061 26.738C115.684 26.738 113.917 24.1061 113.917 20.7116V20.1704H124.048C124.312 16.8006 122.28 13.6275 117.98 13.6275C113.943 13.6275 110.909 16.8252 110.909 21.0314C110.909 25.0408 113.574 28.1401 117.98 28.1401ZM117.769 14.3654C120.301 14.3654 121.33 16.4316 121.04 19.3833L113.969 19.4817C114.233 15.915 115.684 14.3654 117.769 14.3654ZM124.127 33.7483H132.385V33.1088C129.958 33.0842 129.272 32.8628 129.272 31.9527V27.0824C130.486 27.6973 131.673 28.0909 133.335 28.0909C137.557 28.0909 140.116 24.7702 140.116 20.5394C140.116 16.5054 137.979 13.6029 134.179 13.6029C132.148 13.6029 130.618 14.513 129.193 15.7921V13.7751L124.101 13.898V14.5376C126 14.5622 126.502 15.1525 126.502 16.0626V31.9281C126.502 32.8382 126 33.0596 124.101 33.0842L124.127 33.7483ZM132.939 27.3284C131.092 27.3284 129.905 26.5658 129.272 24.6964V16.653C130.222 15.6691 131.383 14.9065 132.966 14.9065C135.551 14.9065 137.055 17.3417 137.055 20.7116C137.055 24.9916 135.419 27.3284 132.939 27.3284ZM148.743 28.1401C152.859 28.1401 156.078 25.09 156.078 20.81C156.078 16.5546 153.044 13.6275 148.743 13.6275C144.575 13.6275 141.329 16.6776 141.329 20.933C141.329 25.213 144.364 28.1401 148.743 28.1401ZM148.875 27.3775C146.263 27.3775 144.443 25.5081 144.443 20.8592C144.443 16.1856 145.973 14.3408 148.559 14.3408C151.171 14.3408 152.991 16.161 152.991 20.8592C152.991 25.5081 151.408 27.3775 148.875 27.3775ZM156.131 27.8941H164.02V27.23C161.882 27.2054 161.276 26.984 161.276 26.0985V17.4647C162.12 16.1856 163.123 15.2755 164.574 15.1771C164.494 15.3985 164.442 15.6445 164.442 15.8413C164.442 16.8744 165.26 17.4647 166.236 17.4647C167.238 17.4647 167.951 16.7268 167.951 15.7429C167.951 14.7098 167.238 13.7013 165.55 13.7013C163.861 13.7013 162.357 14.8819 161.196 16.5792V13.8242L156.104 13.9472V14.5868C158.004 14.6114 158.505 15.2017 158.505 16.1118V26.0985C158.505 26.984 158.004 27.2054 156.104 27.23V27.8941H156.131ZM174.52 28.1893C176.473 28.1893 177.792 27.2546 178.953 25.2867L178.399 24.9178C177.555 26.1477 176.657 26.7872 175.734 26.7872C174.388 26.7872 173.782 26.0493 173.782 24.2782V15.0049H178.504V13.898H173.782V8.83092L171.064 9.93782V13.8242L168.083 14.4638V15.0541H171.038V24.3028C171.011 26.8856 172.172 28.1893 174.52 28.1893Z" fill="black"/>
</g>
<defs>
<clipPath id="clip0_3360_58285">
<rect width="159" height="28" fill="white" transform="translate(20.5 6)"/>
</clipPath>
</defs>
</svg>
