<svg width="200" height="40" viewBox="0 0 200 40" fill="none" xmlns="http://www.w3.org/2000/svg">
<path d="M146.329 9.4533H149.992V5.97256H152.608V9.4533H156.271V12.115H152.608V15.5958H149.992V12.115H146.329V9.4533ZM147.233 30.133H156.509V33.1018H143.951V21.2264H156.223V24.1952H147.185V25.7821H154.558V28.4438H147.185V30.133H147.233ZM143.523 16.8755H131.107V5H134.39V13.9066H143.57V16.8755H143.523ZM135.674 25.2702C135.674 24.5536 135.246 24.1952 134.247 24.1952H128.682V26.3452H134.247C135.246 26.3452 135.674 25.9868 135.674 25.2702ZM133.438 29.2116H128.682V33.0507H125.399V21.2264H134.104C137.434 21.2264 139.051 22.9667 139.051 25.2189C139.051 26.8058 138.147 28.0343 136.53 28.5974L139.86 33.0507H136.197L133.438 29.2116ZM116.837 13.9066H126.113V16.8755H113.555V5H125.827V7.96887H116.79V9.55567H124.163V12.1662H116.79V13.9066H116.837ZM117.218 27.7272V21.2264H120.5V27.8807C120.5 31.515 118.264 33.3578 113.698 33.3578C109.131 33.3578 106.896 31.515 106.896 27.8807V21.2264H110.178V27.7272C110.178 29.5187 111.177 30.2354 113.745 30.2354C116.171 30.2866 117.218 29.5187 117.218 27.7272ZM104.089 16.8755H101.14L94.4806 5H98.1433L102.615 13.1388L107.134 5H110.701L104.089 16.8755ZM100.379 24.963C97.8578 24.0417 96.5259 23.7858 94.8611 23.7858C92.7682 23.7858 92.3401 24.1441 92.3401 24.6559C92.3401 25.0143 92.5779 25.2189 93.4817 25.3213L98.2384 25.7821C101.521 26.0892 102.662 27.5224 102.662 29.4676C102.662 31.7198 100.379 33.409 95.7174 33.409C93.6243 33.409 90.7703 32.9483 88.2968 32.027L90.0092 29.1092C92.4827 30.0818 94.8136 30.4913 96.5259 30.4913C98.7617 30.4913 99.2849 30.133 99.2849 29.6211C99.2849 29.2628 99.0471 28.9557 98.0481 28.8533L93.434 28.3926C90.2946 28.0855 89.1055 26.8058 89.1055 24.8607C89.1055 22.8132 90.913 20.9193 95.5271 20.9193C97.5724 20.9193 99.6655 21.3288 101.996 22.2502L100.379 24.963ZM89.3433 12.0127L87.393 8.37836L85.4427 12.0127H89.3433ZM83.6827 33.1018H80.4007V21.2264H83.6827V33.1018ZM90.8179 14.828H83.873L82.779 16.8243H79.259L85.966 5H88.9152L95.5746 16.8755H91.9595L90.8179 14.828ZM73.1228 9.0438C73.1228 8.32718 72.6947 7.96887 71.6957 7.96887H66.1304V10.1187H71.6957C72.6947 10.1187 73.1228 9.70924 73.1228 9.0438ZM66.1304 30.133H75.406V33.1018H62.8482V21.2264H75.1207V24.1952H66.0828V25.7821H73.4557V28.4438H66.1304V30.133ZM70.8872 12.9852H66.1304V16.8243H62.8482V5H71.5531C74.8828 5 76.5001 6.74037 76.5001 8.99261C76.5001 10.5794 75.5963 11.8079 73.9791 12.371L77.3088 16.8243H73.646L70.8872 12.9852ZM58.5672 33.1018H46.1045V21.2264H49.3866V30.133H58.5672V33.1018ZM43.4883 5H58.5672V7.96887H52.6688V16.8755H49.3866V7.96887H43.4883V5Z" fill="black"/>
</svg>
