<svg version="1.2" xmlns="http://www.w3.org/2000/svg" viewBox="0 0 110 47" width="110" height="47">
	<title>trustpilot-logo</title>
	<defs>
		<clipPath clipPathUnits="userSpaceOnUse" id="cp1">
			<path d="m88 0h12v21h-12z"/>
		</clipPath>
	</defs>
	<style>
		.s0 { fill: #ffffff } 
	</style>
	<filter id="f0">
		<feFlood flood-color="#52575c" flood-opacity="1" />
		<feBlend mode="normal" in2="SourceGraphic"/>
		<feComposite in2="SourceAlpha" operator="in" />
	</filter>
	<g id="Folder 1" filter="url(#f0)">
		<path class="s0" d="m99.7 14z"/>
		<path class="s0" d="m38.1 35.1h7v1.3h-2.8v7.3h-1.5v-7.3h-2.7v-1.4zm6.7 2.4h1.3v1.2q0-0.2 0.2-0.5 0.2-0.2 0.4-0.4 0.3-0.2 0.6-0.3 0.3-0.1 0.6-0.2 0.1 0 0.3 0h0.2v1.4l-0.3-0.1h-0.3q-0.3 0-0.7 0.2-0.3 0.1-0.5 0.4-0.2 0.3-0.4 0.6-0.1 0.5-0.1 1v3h-1.3zm9.9 6.2h-1.3v-0.8q-0.3 0.5-0.8 0.7-0.5 0.3-1 0.3-0.5 0-1-0.1-0.4-0.2-0.8-0.5c-0.4-0.5-0.6-1.2-0.5-1.8v-4h1.3v3.8c0 0.4 0.1 0.8 0.3 1.2q0.2 0.1 0.4 0.2 0.2 0.1 0.5 0.1 0.4 0 0.7-0.1 0.3-0.2 0.5-0.4 0.2-0.2 0.2-0.5 0.1-0.3 0.1-0.7v-3.6h1.4v6.2zm2.3-2q0 0.3 0.1 0.5 0.2 0.2 0.4 0.4 0.4 0.2 0.9 0.2 0.2 0 0.5 0 0.2 0 0.4-0.1 0.2-0.1 0.4-0.2 0.1-0.2 0.1-0.5 0-0.1 0-0.2-0.1-0.1-0.2-0.2-0.2-0.2-0.5-0.3-0.3-0.1-0.6-0.1l-0.7-0.2q-0.4-0.1-0.8-0.2-0.3-0.1-0.6-0.3-0.3-0.3-0.5-0.6-0.2-0.4-0.2-0.8 0-0.4 0.3-0.8 0.2-0.4 0.6-0.6 0.4-0.2 0.9-0.3 0.4-0.1 0.9-0.1 0.4 0 0.9 0.1 0.4 0.1 0.8 0.4 0.3 0.2 0.6 0.6 0.2 0.4 0.3 0.9h-1.5q0-0.2-0.1-0.4-0.1-0.2-0.3-0.3-0.4-0.2-0.8-0.2-0.2 0-0.4 0-0.2 0.1-0.3 0.1-0.2 0.1-0.3 0.2-0.2 0.2-0.2 0.4 0 0.1 0.1 0.2 0 0.1 0.1 0.2 0.2 0.1 0.5 0.2 0.3 0.1 0.6 0.2 0.4 0.1 0.8 0.2 0.4 0 0.7 0.2 0.4 0.1 0.7 0.3 0.3 0.2 0.4 0.5 0.2 0.4 0.2 0.8 0 0.5-0.2 0.9-0.3 0.4-0.7 0.6-0.4 0.3-0.9 0.4-0.5 0.1-1 0.1-0.5 0-1.1-0.1-0.4-0.2-0.8-0.4-0.4-0.3-0.6-0.7-0.2-0.5-0.2-1h1.3zm4.5-4.2h1.1v-1.9h1.4v1.9h1.2v1h-1.2v3.3q-0.1 0.2 0 0.4 0 0.1 0 0.2 0.1 0.2 0.2 0.2 0.2 0.1 0.4 0.1h0.3q0.1 0 0.3-0.1v1.1h-0.5q-0.2 0-0.4 0-0.4 0-0.9-0.1-0.3-0.1-0.5-0.3-0.2-0.2-0.2-0.5-0.1-0.3-0.1-0.6v-3.7h-1v-1zm4.6 0h1.3v0.8c0.2-0.3 0.4-0.6 0.8-0.8q0.5-0.2 1.1-0.2 0.7 0 1.3 0.3 0.5 0.2 0.9 0.7 0.4 0.4 0.5 1c0.3 0.9 0.3 1.7 0 2.5q-0.1 0.6-0.5 1.1-0.3 0.5-0.8 0.7-0.6 0.3-1.2 0.3-0.3 0-0.6-0.1-0.3 0-0.6-0.1-0.5-0.3-0.9-0.8v3.1h-1.3zm4.7 3.2q0-0.5-0.1-0.9-0.1-0.3-0.3-0.7-0.2-0.3-0.5-0.5c-0.4-0.1-0.8-0.2-1.1-0.1-0.4 0.1-0.7 0.3-1 0.6-0.3 0.4-0.4 1-0.4 1.6q0 0.4 0.1 0.8 0.1 0.4 0.3 0.7 0.3 0.3 0.6 0.5 0.3 0.2 0.7 0.2 0.4 0 0.8-0.2 0.3-0.2 0.6-0.5 0.2-0.4 0.3-0.7 0-0.4 0-0.8zm2.5-5.6h1.3v1.4h-1.3zm0 2.4h1.3v6.2h-1.3zm2.6-2.4h1.3v8.6h-1.3zm5.5 8.9q-0.7 0-1.3-0.3-0.6-0.2-1-0.7-0.4-0.4-0.6-1-0.2-0.7-0.2-1.3 0-0.7 0.2-1.4 0.2-0.6 0.6-1 0.4-0.5 1-0.7c0.8-0.3 1.8-0.3 2.6 0q0.6 0.2 1 0.7 0.4 0.4 0.6 1 0.2 0.7 0.2 1.3 0.1 0.7-0.2 1.4-0.2 0.5-0.6 1-0.4 0.4-1 0.7-0.6 0.2-1.3 0.2zm0-1.1q0.4 0 0.8-0.2 0.3-0.2 0.5-0.5 0.3-0.3 0.4-0.7 0.1-0.4 0.1-0.8-0.1-0.4-0.1-0.8-0.1-0.4-0.4-0.7-0.2-0.3-0.5-0.5-0.4-0.2-0.8-0.2-0.4 0-0.8 0.2-0.3 0.2-0.5 0.5-0.3 0.3-0.4 0.7-0.2 0.8 0 1.6 0.1 0.4 0.4 0.7 0.2 0.3 0.5 0.5 0.4 0.2 0.8 0.2zm3.5-5.3h1.1v-1.9h1.3v1.9h1.3v1h-1.3v3.3q0 0.2 0 0.4 0 0.1 0.1 0.2 0.1 0.1 0.2 0.2 0.2 0.1 0.4 0h0.3q0.1 0 0.3 0v1.1h-0.5q-0.6 0.1-1.3 0-0.3-0.1-0.5-0.4-0.2-0.2-0.3-0.5 0-0.3 0-0.6v-3.7h-1.1v-1z"/>
		<path class="s0" d="m38.1 35.1h7v1.3h-2.8v7.3h-1.5v-7.3h-2.7v-1.4zm6.7 2.4h1.3v1.2q0-0.2 0.2-0.5 0.2-0.2 0.4-0.4 0.3-0.2 0.6-0.3 0.3-0.1 0.6-0.2 0.1 0 0.3 0h0.2v1.4l-0.3-0.1h-0.3q-0.3 0-0.7 0.2-0.3 0.1-0.5 0.4-0.2 0.3-0.4 0.6-0.1 0.5-0.1 1v3h-1.3zm9.9 6.2h-1.3v-0.8q-0.3 0.5-0.8 0.7-0.5 0.3-1 0.3-0.5 0-1-0.1-0.4-0.2-0.8-0.5c-0.4-0.5-0.6-1.2-0.5-1.8v-4h1.3v3.8c0 0.4 0.1 0.8 0.3 1.2q0.2 0.1 0.4 0.2 0.2 0.1 0.5 0.1 0.4 0 0.7-0.1 0.3-0.2 0.5-0.4 0.2-0.2 0.2-0.5 0.1-0.3 0.1-0.7v-3.6h1.4v6.2zm2.3-2q0 0.3 0.1 0.5 0.2 0.2 0.4 0.4 0.4 0.2 0.9 0.2 0.2 0 0.5 0 0.2 0 0.4-0.1 0.2-0.1 0.4-0.2 0.1-0.2 0.1-0.5 0-0.1 0-0.2-0.1-0.1-0.2-0.2-0.2-0.2-0.5-0.3-0.3-0.1-0.6-0.1l-0.7-0.2q-0.4-0.1-0.8-0.2-0.3-0.1-0.6-0.3-0.3-0.3-0.5-0.6-0.2-0.4-0.2-0.8 0-0.4 0.3-0.8 0.2-0.4 0.6-0.6 0.4-0.2 0.9-0.3 0.4-0.1 0.9-0.1 0.4 0 0.9 0.1 0.4 0.1 0.8 0.4 0.3 0.2 0.6 0.6 0.2 0.4 0.3 0.9h-1.5q0-0.2-0.1-0.4-0.1-0.2-0.3-0.3-0.4-0.2-0.8-0.2-0.2 0-0.4 0-0.2 0.1-0.3 0.1-0.2 0.1-0.3 0.2-0.2 0.2-0.2 0.4 0 0.1 0.1 0.2 0 0.1 0.1 0.2 0.2 0.1 0.5 0.2 0.3 0.1 0.6 0.2 0.4 0.1 0.8 0.2 0.4 0 0.7 0.2 0.4 0.1 0.7 0.3 0.3 0.2 0.4 0.5 0.2 0.4 0.2 0.8 0 0.5-0.2 0.9-0.3 0.4-0.7 0.6-0.4 0.3-0.9 0.4-0.5 0.1-1 0.1-0.5 0-1.1-0.1-0.4-0.2-0.8-0.4-0.4-0.3-0.6-0.7-0.2-0.5-0.2-1h1.3zm4.5-4.2h1.1v-1.9h1.4v1.9h1.2v1h-1.2v3.3q-0.1 0.2 0 0.4 0 0.1 0 0.2 0.1 0.2 0.2 0.2 0.2 0.1 0.4 0.1h0.3q0.1 0 0.3-0.1v1.1h-0.5q-0.2 0-0.4 0-0.4 0-0.9-0.1-0.3-0.1-0.5-0.3-0.2-0.2-0.2-0.5-0.1-0.3-0.1-0.6v-3.7h-1v-1zm4.6 0h1.3v0.8c0.2-0.3 0.4-0.6 0.8-0.8q0.5-0.2 1.1-0.2 0.7 0 1.3 0.3 0.5 0.2 0.9 0.7 0.4 0.4 0.5 1c0.3 0.9 0.3 1.7 0 2.5q-0.1 0.6-0.5 1.1-0.3 0.5-0.8 0.7-0.6 0.3-1.2 0.3-0.3 0-0.6-0.1-0.3 0-0.6-0.1-0.5-0.3-0.9-0.8v3.1h-1.3zm4.7 3.2q0-0.5-0.1-0.9-0.1-0.3-0.3-0.7-0.2-0.3-0.5-0.5c-0.4-0.1-0.8-0.2-1.1-0.1-0.4 0.1-0.7 0.3-1 0.6-0.3 0.4-0.4 1-0.4 1.6q0 0.4 0.1 0.8 0.1 0.4 0.3 0.7 0.3 0.3 0.6 0.5 0.3 0.2 0.7 0.2 0.4 0 0.8-0.2 0.3-0.2 0.6-0.5 0.2-0.4 0.3-0.7 0-0.4 0-0.8zm2.5-5.6h1.3v1.4h-1.3zm0 2.4h1.3v6.2h-1.3zm2.6-2.4h1.3v8.6h-1.3zm5.5 8.9q-0.7 0-1.3-0.3-0.6-0.2-1-0.7-0.4-0.4-0.6-1-0.2-0.7-0.2-1.3 0-0.7 0.2-1.4 0.2-0.6 0.6-1 0.4-0.5 1-0.7c0.8-0.3 1.8-0.3 2.6 0q0.6 0.2 1 0.7 0.4 0.4 0.6 1 0.2 0.7 0.2 1.3 0.1 0.7-0.2 1.4-0.2 0.5-0.6 1-0.4 0.4-1 0.7-0.6 0.2-1.3 0.2zm0-1.1q0.4 0 0.8-0.2 0.3-0.2 0.5-0.5 0.3-0.3 0.4-0.7 0.1-0.4 0.1-0.8-0.1-0.4-0.1-0.8-0.1-0.4-0.4-0.7-0.2-0.3-0.5-0.5-0.4-0.2-0.8-0.2-0.4 0-0.8 0.2-0.3 0.2-0.5 0.5-0.3 0.3-0.4 0.7-0.2 0.8 0 1.6 0.1 0.4 0.4 0.7 0.2 0.3 0.5 0.5 0.4 0.2 0.8 0.2zm3.5-5.3h1.1v-1.9h1.3v1.9h1.3v1h-1.3v3.3q0 0.2 0 0.4 0 0.1 0.1 0.2 0.1 0.1 0.2 0.2 0.2 0.1 0.4 0h0.3q0.1 0 0.3 0v1.1h-0.5q-0.6 0.1-1.3 0-0.3-0.1-0.5-0.4-0.2-0.2-0.3-0.5 0-0.3 0-0.6v-3.7h-1.1v-1z"/>
		<path class="s0" d="m28.3 41.1l3.6-0.9 1.5 4.6zm8.2-6h-6.3l-1.9-6-1.9 6h-6.3l5.1 3.7-2 6 5.1-3.7 3.1-2.3z"/>
		<path class="s0" d="m28.3 41.1l3.6-0.9 1.5 4.6zm8.2-6h-6.3l-1.9-6-1.9 6h-6.3l5.1 3.7-2 6 5.1-3.7 3.1-2.3z"/>
		<path class="s0" d="m0 20.8h20.6v-20.8h-20.6zm10.3-6.8l3.1-0.8 1.4 4.1zm-1.7-5.3l1.7-5.2 1.7 5.2h5.5l-4.5 3.3-2.7 2-4.5 3.2 1.7-5.2-4.5-3.3z"/>
		<path class="s0" d="m0 20.8h20.6v-20.8h-20.6zm10.3-6.8l3.1-0.8 1.4 4.1zm-1.7-5.3l1.7-5.2 1.7 5.2h5.5l-4.5 3.3-2.7 2-4.5 3.2 1.7-5.2-4.5-3.3z"/>
		<path class="s0" d="m22.3 20.9h20.7v-20.8h-20.7zm10.4-6.9l3.1-0.8 1.3 4.1zm-1.7-5.3l1.7-5.2 1.7 5.2h5.5l-4.4 3.3-2.8 2-4.4 3.2 1.7-5.2-4.5-3.3z"/>
		<path class="s0" d="m22.3 20.9h20.7v-20.8h-20.7zm10.4-6.9l3.1-0.8 1.3 4.1zm-1.7-5.3l1.7-5.2 1.7 5.2h5.5l-4.4 3.3-2.8 2-4.4 3.2 1.7-5.2-4.5-3.3z"/>
		<path class="s0" d="m44.7 20.9h20.6v-20.8h-20.6zm10.3-6.9l3.1-0.8 1.4 4.1zm-1.7-5.3l1.7-5.2 1.7 5.2h5.5l-4.4 3.3-2.8 2-4.5 3.2 1.7-5.2-4.5-3.2z"/>
		<path class="s0" d="m44.7 20.9h20.6v-20.8h-20.6zm10.3-6.9l3.1-0.8 1.4 4.1zm-1.7-5.3l1.7-5.2 1.7 5.2h5.5l-4.4 3.3-2.8 2-4.5 3.2 1.7-5.2-4.5-3.2z"/>
		<path class="s0" d="m67 20.9h20.7v-20.8h-20.7zm10.3-6.9l3.2-0.8 1.3 4.1zm-1.7-5.3l1.7-5.2 1.7 5.2h5.5l-4.4 3.3-2.8 2-4.5 3.2 1.7-5.2-4.4-3.3z"/>
		<path class="s0" d="m67 20.9h20.7v-20.8h-20.7zm10.3-6.9l3.2-0.8 1.3 4.1zm-1.7-5.3l1.7-5.2 1.7 5.2h5.5l-4.4 3.3-2.8 2-4.5 3.2 1.7-5.2-4.4-3.3z"/>
		<path class="s0" d="m89.4 20.9h20.6v-20.8h-20.6zm10.3-6.9l3.1-0.8 1.3 4.1zm-1.7-5.3l1.7-5.2 1.7 5.2h5.6l-4.5 3.3-2.7 2-4.5 3.2 1.7-5.2-4.5-3.3z"/>
		<path class="s0" d="m89.4 20.9h20.6v-20.8h-20.6zm10.3-6.9l3.1-0.8 1.3 4.1zm-1.7-5.3l1.7-5.2 1.7 5.2h5.6l-4.5 3.3-2.7 2-4.5 3.2 1.7-5.2-4.5-3.3z"/>
		<g id="Clip-Path" clip-path="url(#cp1)">
			<g>
				<path class="s0" d="m89.4 20.9h20.6v-20.8h-20.6zm10.3-6.9l3.1-0.8 1.3 4.1zm-1.7-5.3l1.7-5.2 1.7 5.2h5.6l-4.5 3.3-2.7 2-4.5 3.2 1.7-5.2-4.5-3.3z"/>
				<path class="s0" d="m89.4 20.9h20.6v-20.8h-20.6zm10.3-6.9l3.1-0.8 1.3 4.1zm-1.7-5.3l1.7-5.2 1.7 5.2h5.6l-4.5 3.3-2.7 2-4.5 3.2 1.7-5.2-4.5-3.3z"/>
			</g>
		</g>
	</g>
</svg>