<svg width="71" height="70" viewBox="0 0 71 70" fill="none" xmlns="http://www.w3.org/2000/svg">
<g clip-path="url(#clip0_1674_1387)">
<path d="M37.7702 10.9645L40.8791 16.2299C41.0323 16.4926 41.2841 16.6787 41.5797 16.7444L47.5457 18.0689C48.3557 18.255 48.6841 19.2403 48.1258 19.8642L44.0755 24.4509C43.8785 24.6808 43.78 24.9764 43.8019 25.2829L44.382 31.3693C44.4587 32.2013 43.6267 32.8143 42.8604 32.4749L37.2447 30.0447C36.971 29.9243 36.6536 29.9243 36.369 30.0447L30.7533 32.4749C29.987 32.8033 29.1441 32.2013 29.2317 31.3693L29.8118 25.2829C29.8447 24.9764 29.7462 24.6808 29.5382 24.4509L25.4879 19.8642C24.9405 19.2403 25.258 18.255 26.068 18.0689L32.034 16.7444C32.3296 16.6787 32.5814 16.4926 32.7346 16.2299L35.8435 10.9645C36.2705 10.242 37.3104 10.242 37.7264 10.9645H37.7702Z" stroke="#CC5426" stroke-width="2.18936" stroke-linecap="round" stroke-linejoin="round"/>
<path d="M45.3438 12.6175L46.8872 11.074" stroke="#CC5426" stroke-width="2.18936" stroke-linecap="round" stroke-linejoin="round"/>
<path d="M22.7266 26.4979L24.7846 25.7535" stroke="#CC5426" stroke-width="2.18936" stroke-linecap="round" stroke-linejoin="round"/>
<path d="M48.8672 25.7535L50.9252 26.4979" stroke="#CC5426" stroke-width="2.18936" stroke-linecap="round" stroke-linejoin="round"/>
<path d="M26.7656 11.074L28.3091 12.6175" stroke="#CC5426" stroke-width="2.18936" stroke-linecap="round" stroke-linejoin="round"/>
<path d="M36.8242 60.7834V47.7129" stroke="#CC5426" stroke-width="2.18936" stroke-linecap="round" stroke-linejoin="round"/>
<path d="M57.6271 45.9614V52.026L36.8281 60.7834" stroke="#CC5426" stroke-width="2.18936" stroke-linecap="round" stroke-linejoin="round"/>
<path d="M16.0273 45.9614V52.026L36.8263 60.7834" stroke="#CC5426" stroke-width="2.18936" stroke-linecap="round" stroke-linejoin="round"/>
<path d="M36.8281 38.8898L57.6271 33.4164" stroke="#CC5426" stroke-width="2.18936" stroke-linecap="round" stroke-linejoin="round"/>
<path d="M16.0273 33.4164L36.8263 38.8898" stroke="#CC5426" stroke-width="2.18936" stroke-linecap="round" stroke-linejoin="round"/>
<path d="M57.6255 33.4164L48.7695 31.0847" stroke="#CC5426" stroke-width="2.18936" stroke-linecap="round" stroke-linejoin="round"/>
<path d="M24.8833 31.0847L16.0273 33.4164" stroke="#CC5426" stroke-width="2.18936" stroke-linecap="round" stroke-linejoin="round"/>
<path d="M57.6231 33.4164L62.0019 39.9845L41.2029 46.5525L36.8242 38.8898" stroke="#CC5426" stroke-width="2.18936" stroke-linecap="round" stroke-linejoin="round"/>
<path d="M16.0272 33.4164L11.6484 39.9845L32.4474 46.5525L36.8261 38.8898" stroke="#CC5426" stroke-width="2.18936" stroke-linecap="round" stroke-linejoin="round"/>
</g>
<defs>
<clipPath id="clip0_1674_1387">
<rect width="52.5447" height="52.5447" fill="white" transform="translate(10.5547 9.33337)"/>
</clipPath>
</defs>
</svg>
